<?xml version="1.0" encoding="UTF-8"?>
<svg id="_レイヤー_1" data-name="レイヤー_1" xmlns="http://www.w3.org/2000/svg" version="1.1" viewBox="0 0 992 992">
  <!-- Generator: Adobe Illustrator 29.6.1, SVG Export Plug-In . SVG Version: 2.1.1 Build 9)  -->
  <defs>
    <style>
      .st0 {
        fill: #fbcf36;
      }

      .st1 {
        fill: #b59558;
      }

      .st2 {
        fill: #4f1910;
      }

      .st3 {
        fill: #f9f2d7;
      }

      .st4 {
        fill: #fbf5e6;
      }

      .st5 {
        fill: #fac95c;
      }

      .st6 {
        fill: #fde499;
      }

      .st7 {
        fill: #facb5f;
      }

      .st8 {
        fill: #f9f1d7;
      }

      .st9 {
        fill: #f9f2d9;
      }

      .st10 {
        fill: #fcf6e5;
      }

      .st11 {
        fill: #4e1911;
      }

      .st12 {
        fill: #fcd034;
      }

      .st13 {
        fill: #ede3c8;
      }

      .st14 {
        fill: #fde398;
      }

      .st15 {
        fill: #f5c359;
      }

      .st16 {
        fill: #f5dd83;
      }

      .st17 {
        fill: #f9e599;
      }

      .st18 {
        fill: #3c1209;
      }

      .st19 {
        fill: #f3c253;
      }

      .st20 {
        fill: #f8f1d9;
      }

      .st21 {
        fill: #46160d;
      }

      .st22 {
        fill: #fcd036;
      }
    </style>
  </defs>
  <path class="st9" d="M518.69,58.31l-2.36,1.23c-7.7-6.59-15.71-12.75-24.03-18.47l-5.36-1.07c-1.74,1.74-2.79,1.22-2.44-1.22-13.29-10.84-38.2-9.55-42.75,9.77,2.58,1.94,1.99,2.68-1.22,2.44-12.97,29.87-9.64,68.17,4.89,96.48l3.07-.15c11.08,20.5,25.67,39,40.76,56.69l-1.1,3.66c-34.66,6.83-68.63,14.62-100.09,31.09-99.27,51.99-155.92,171.48-106.55,276.53,2.85,9.38,4.28,15.72-.51,24.83-18.48,35.2-68.83,26.32-100.24,18.08-32.92-4.76-89.36-7.26-102.7,31.34-14.17,40.97,36.4,81.71,70.97,92.95l.25,4.31c-24.45,56.47,33.61,85.3,82.77,65.75,9.22,7.7,1.66,16.34-5.55,22.23-19.95,25.27,33.05,63.07,56.68,61.91,23.2-.55,40.13,1.41,61.82,8.74,6.54,2.21,40.17,14.52,43.09,18.85,2.61,3.86,3.58,24.44,3.51,29.91-.23,16.92-4.05,23.09-14.37,36.46-10.59,19.33-.12,28.97,19.62,24.05,15.38-4.76,29.58-3.91,45.27-.38,7.65,1.02,15.55.5,22.12-3.95l3.16.73c14.73-19.45-6.93-32.45-22.43-40.48-8.43-1.13-4.26-31.82-1.8-33.42.53-.35,3.13-.19,3.46.62,1.01.53,1.71,1.21,1.46,2.02-2.74,8.77-4.41,16.02-.24,24.85,2.3,1.95,7.64,3.08,10.08,4.87,4.47,3.28,14.73,12.76,17.03,17.49,3,6.19,3.66,13.5,1.26,20.05-.85,2.33-8.53,11.44-10.59,12.62-4.89,2.82-22.14,2.88-28.15,2.36-7.28-.63-19.04-5.31-25.62-4.93-6.56.37-10.98,4.41-15.99,6.09-21.88,7.35-39.34-9.23-30.06-31.28,4.1-9.74,14.21-17.17,15.77-28.19.77-5.41-.19-17.22-.91-22.88-.35-2.76-1.36-9.84-3.05-11.61l-55.31-20.4c-31.69-.69-63.32-1.15-88.2-24.17-8.41-7.78-22.77-27.04-21.71-38.74.73-8.1,6.19-13.47,8.29-20.5-26.03,6.23-54.51,3.1-72.68-18.31-11.15-13.15-15.81-27.13-14.02-44.58.3-2.95,3.93-12.81,3.14-14.07-1.29-2.04-27.31-13.83-31.17-17.77-16.02-14.69-37.17-34.51-39.14-57.35-6.15-71.3,70.8-71.32,121.36-63.96,23.41,3.41,40.89,12.43,65.09,2.52,6.22-2.55,18.75-11.11,19.86-17.99,2.42-14.95-10.56-38.57-14.22-54.03-14.31-60.47,1.31-117.09,34.07-167.95,39.82-61.83,108.08-98.54,179.31-111.99.92-6.24-5.67-9.02-9.06-13.53-26.69-35.53-41.43-69.2-34.58-114.98,2.34-15.6,8.03-37.32,24.64-42.54,24.74-7.78,45,9.5,62.14,24.72,1.58,1.4,3.38,1.9,3.28,4.66Z"/>
  <path class="st8" d="M605.41,197.54l1.23,2.43c-1.3.91-4.68,5.2-2.41,6.17,19.36,7.25,38.07,15.78,56.14,25.6,30.09,14.45,58.14,37.97,80.01,63.49,50.69,59.15,77.18,154.8,42.33,228.01-4.65,9.76-18.04,24.72-13.02,35.79,2.43,5.36,10.39,9.04,16.01,9.64,33.07,3.54,90.47-10.58,118.28,11.18,33.57,26.26,23.57,63.12-.58,91.57l-11.48,10.23c-6.61,4.78-17.52,12.58-25.16,9.31l1.55-3.37c60.83-32.96,72.61-109.49-15.78-111.09l-45.07,2.1c-27.95,3.65-58.89-6.3-44.01-40.57,38.32-56.45,30.96-131.28,1.21-190.66-34.62-69.1-103.96-115.81-177.68-134.81-.64-1.12-.99-2.33-.98-3.63,0-1.91,16.37-15.17,19.41-11.37Z"/>
  <path class="st20" d="M903.41,671.41c-8.73,10.29-18.12,19.62-30.9,24.67-4.83,1.91-20.42,3.31-22.3,7.08-.64,1.28,1.39,12.6,1.42,15.48.14,12.75-.83,24.83-7.04,36.23-10.05,18.46-38.86,22.86-57.84,20.36-3.37-.44-10.1-3.53-12.24-3.22-1.18.17-8.88,7.68-11.14,9.11-2.38,1.51-12.55,6.7-14.78,7.2-4.41.98-9.97-.73-13.7.96-2.44,1.1-12.4,18.66-15.36,22.5-25.11,32.46-54.95,43.42-91.25,57.75-9.99,3.94-13.71,4.18-16.39,15.36-6.15,25.66,3.9,19.18,20.05,26.85,7.48,3.55,16.94,15.14,18.14,23.4.74,5.12-4.44,11.27-3.76,17.16-4.98,6.02-9.11,8.97-17.1,9.77-14.82,1.49-30.39-1.14-44.01-3.59-8.49-1.53-15.66,3.31-24.42,3.63-15.14.56-30.88-7.87-29.89-25.02.87-15.04,15.02-25.12,16.79-38.22,1.07-7.87-1.69-13.98-4.56-21.06.58-1.42,8.15-1.62,9-1.09,3.52,2.17,3.79,29.12.71,33.75-4.67,5.05-8.73,10.45-12.15,16.19l1.83,2.34c-5.65,14.6,3.12,25.8,18.71,24.61,16.83-5.51,32.92-3.57,50.54-1.12,43.25,6.61,33.92-32.97.93-35.77-18.46-1.73-11.12-45.65-2.14-50.29,49.35-14.18,93.7-39.97,119.32-85.28,17.72-.18,29.57-6.08,41.9-18.83,26.14,7.95,57.71,6.91,69.65-21.89l3.36-1.85c2.87-10.38,1.62-19.54-.76-29.75-1.26-6.65.26-10.37,6.87-11.78.41-3.41,1.31-3.72,3.66-1.22,4.13-.01,7.39-1.23,9.77-3.66-.54-3.26.1-3.57,2.44-1.22,7.8-2.28,17.61-5.8,24.34-10.46,3.87-2.68,7.21-7.9,12.3-9.08Z"/>
  <path class="st3" d="M518.69,58.31c12.87,10.7,13.58,19.14,22.65,30.47,6.76,8.44,10.69-10.26,13.53-15.67,12.44-23.69,26.04-33.46,49.92-14.81,24.56,19.18,39.63,49.44,37.09,81.06-2.15,26.82-15.82,48.45-36.46,64.89,0,2.03,24.08,10.35,28.1,12.18,8.93,4.08,19.52,8.91,26.84,15.3-18.69-8.97-38.05-16.35-57.4-23.81-3.54-4.28.13-7.16,2.44-10.39l-.45-3.48c37.92-36.35,37.99-86.54.21-123.57-14.73-14.43-29.73-18.53-39.61,2.18-7.46,14.22-12.36,29.42-17.12,44.59-2.37,1.71-4.05,2.65-5.54-.16-8.21-29.83-28.96-56.66-54.66-73.59l-1.29-3.53c2.02.04,4.04-1.43,6.04-.61,3.18,1.29,21.9,15.76,25.71,18.93Z"/>
  <path class="st13" d="M540.68,926.67c3.82-12,12.34-11.53,13.48-24.99.42-4.95-.21-18.46-1.43-23.08-.66-2.49-6.53-.81-9.6-.78-1.22.01-2.44,0-3.66,0-30.74.66-62.37.79-92.82,0-1.16.08-2.37-.35-3.5.14-1.1,1.05-3.18,24.28-2.35,27.09,1.52,5.15,17.52,11.62,22.34,15.52,9.25,7.47,15.12,22.08,4.28,30.53l-1.14-3.16c5.55-11.27,1.64-17.96-7.36-25.32-7.51-3.64-14.23-8.15-20.16-13.53-3.38-6.03-2.69-31.49,3.6-34.87l109.13-.74c7.63,1.51,6.84,17.77,6.5,24.56-.7,14.01-3.97,19.28-14.57,28.72l-2.73-.09Z"/>
  <path class="st20" d="M539.46,877.82c-1.27,2.03-4.63,1.22-6.7,1.24-24.64.31-51.57-.17-75.61,1.09-3.27.17-5.12-3.29-8.66,1.36-4.29,5.63-.66,16.55-.63,23.18-7.14-6.09-2.01-18.94-1.22-26.87,28.93-2.09,63.31-.15,92.82,0Z"/>
  <path class="st21" d="M484.5,38.77c.77.36,1.69.82,2.44,1.22,21.1,11.29,43.09,38.53,52.73,60.24,2.55,5.75,4.6,11.75,5.91,17.91l7.62-23.5c11.34-27.28,20.3-55.22,52.23-27.19,30.32,26.62,39.98,69.59,19.74,105.26-6.02,10.62-13.42,15.98-19.75,24.83-4.69,2.56-11.09,6.57-15.07,9.97-1.27,1.09-2.55,1.2-2.02,3.46,60.99,13.56,124.19,54.15,160.46,105.18,39.92,56.15,58.71,139.34,28.08,203.68-6.62,13.91-18.78,23.98-13.55,40.71,5.54,17.73,26.75,15.92,41.84,15.67,21.08-.35,42.07-3.85,63.31-1.12,79.81,10.23,52.95,92.57-1.68,115.88-.81.24-1.62.95-2.44,1.22-2.26,2.43-5.52,3.66-9.77,3.66-1.2.43-2.44.78-3.66,1.22-7.35,2.36-7.51,4.52-6.86,11.74,2.39,10.22,3.57,19.48.76,29.78-11.62,31.7-43.55,35.47-72.5,25.89-9.17,9.33-16.18,15.66-29.61,17.95-3.59.61-8.36-.77-11.48.73-1.47.71-7.9,12.79-9.99,15.66-27.49,37.68-65.62,56.26-109.35,69.58-7.69,10.11-9.69,25.24-7.13,37.57,2.15,10.36,13.5,8.1,22.28,11.91,18.83,8.18,24.17,34.08,1.02,36.9-15.96,1.95-31.95-2.64-46.43-2.58-11.87.05-22.21,8.62-34.76.66-10.51-6.67-9.51-15.7-6.16-26.2,3.02-6.29,12.65-12.05,14.13-18.24,1.08-4.51,1.37-30.26-1.85-32.52l-110.4.63c-3.08.71-3.9,25.52-2.71,29.43,1.79,5.85,15.98,11.04,21.33,15.31,10.79,8.61,12.96,17.24,6.21,29.82-15.82,12.33-34.15,2.09-50.7,2.35-10.89.17-41.5,13.79-45.5-5.68-3.74-18.22,15.95-27.77,17.9-43.82.64-5.27-.81-35.1-2.97-38.28-.95-1.4-8.2-4.6-10.35-5.53-8.86-3.81-43.24-17.36-50.95-18.66-28.79-4.85-44.75,4.09-74.42-13.52-14.71-8.73-36.77-30.85-29.4-49.35,3.85-9.66,18.35-12.28,10.56-24.04-19.07,6.66-40.4,9.19-59.72,1.72-22.32-8.63-33.53-31.36-30.45-54.83.82-6.27,5.29-11.5,5.97-17.76-35.77-9.9-84.82-52.66-72.09-93.55,12.82-41.17,70.31-39.3,104.32-34.56,22.69,3.16,45.69,12.56,68.6,5.97,14.22-4.09,34.67-17.95,33.47-34.67-.81-11.29-11.21-30.51-14.49-43.01-28.88-110.1,44.01-220.73,146.17-259.13,23.5-8.84,48.75-14.76,73.58-18.64,1.91-1.82-9.54-12.36-10.95-14.07-4.8-5.79-10.14-12.4-14.46-18.51-4.78-6.76-11.73-21.39-16.1-26.03-14.51-28.51-17.86-66.34-4.89-96.48.39-.66.54-1.42,1.22-2.44,4.59-19.16,29.44-20.74,42.75-9.77Z"/>
  <path class="st3" d="M445.41,147.47c-.3-.32-2.43.42-3.43-2.04-10.5-25.81-15.95-69.85-1.46-94.45-8.41,22.33-9.03,44.92-4.05,68.17,2.1,9.81,6.03,18.81,8.94,28.31Z"/>
  <path class="st3" d="M441.75,48.54c1.66-6.38,1.32-14.52,9.46-15.58,6.34-.82,5.89-2,9.5-2.73,5.35-1.08,22.14,1.84,23.79,8.54-2.94-1.38-11.19-4.11-14.36-4.56-13.94-2.01-21.08,3.44-28.39,14.33Z"/>
  <path class="st8" d="M850.89,697.06c-10.99,5.98-3.61,18.26-3.59,28.7.01,5.02-.83,8.21-2.52,12.82-.76-4.79,1.34-9.28,1.27-13.98-.09-5.94-4.38-18.87-3.76-23.24.7-4.99,6.14-3.41,8.6-4.31Z"/>
  <path class="st8" d="M864.33,692.18c-.04,5.34-6.02,3.45-9.77,3.66,3.32-1.2,6.1-2.43,9.77-3.66Z"/>
  <path class="st14" d="M745.86,540.73c-10.86,25.83,7.31,45.8,31.75,51.92,17.09,4.28,32.5-.05,49.42-.67,26.48-.97,87.17-.04,71.71,42.4-10.64,29.21-48.68,47.85-77.11,54.19,3.31,15.24,10.71,24.76,5.44,41.47-9.05,28.71-43.12,24.68-64.56,13.34-1.46,4.19-17.44,22.51-21.53,18.42,2.86-22.11,5.1-45.36-.61-67.16-3.24,5.45-2.28,13.83-3.22,19.99-12.55,82.53-65.83,126.01-145.98,139.8-32.85,5.66-66.95,3.21-100.01,3.81-17.89.32-34.22,3.1-52.31,1.12-51.61-5.65-100.95-33.87-145.5-58.46-.68,8.48,9.86,14.31,14.05,20.75h-21.37c-1.83,0-18.12-5.86-20.98-7.11-7.31-3.18-31.42-18.24-28.35-27.49.32-.95,14.42-12.61,15.39-12.85,2.18-.55,6.39,2,9.51,2.27,32.87,2.88,64.24-30.28,72.68-59.85,1.34-2.37,1.79-15.17,1.47-10.19l-1.47.42c-10.87,17.57-19.65,30.05-38.26,40.51-23.37,13.14-52.24,11.2-48.46-22.19-12.94,5.9-24.11,14.93-38.78,16.78-29.88,3.76-61.83-14.08-47.66-47.66,2.02-4.79,13.81-17.08,11.42-20.48-.98-1.4-27.06-9.57-32.06-11.94-23.84-11.28-62.18-43.8-41.71-72.67,16.31-23,58.78-18.63,83.27-15.3,39.09,5.3,49.09,16.16,87.52-4.42,12.26-6.57,34.2-18.06,35.09-33.3.71-12.12-16.86-37.39-21.71-50.98-13.39-37.56-10.86-81.48,4.91-117.88l1.83,2.47c-16.19,71.21-.15,129.76,63.91,171.37,66.97,43.49,186.84,59.18,264.9,48.85,47.22-6.25,88.53-22.18,124.97-51.05l2.39,1.8Z"/>
  <path class="st4" d="M554.11,220.75c106.02,9.53,203.39,95.65,221.06,201.52l.63,10.99c-.97,1.5-2.12,1.47-3.25.09-10.26-25.1-34.95-42.89-61.08-29.7-1.3-.59-2.05-2.11-2.25-4.58l-2.66-1.13c-22.69-63.85-69,6.06-26.33,32.36l.89,2.96c4.2,0,8.06.71,11.55,2.12-16.71,47.7,38.64,99.89,76.06,53.01,4.75-1.98.4,9.15-.9,12.04-5.06,17.5-16.36,26.93-21.98,40.3-6.71,1.8-9.85,6.76-14.76,10.28-81.99,58.71-203.2,50.02-296.46,26.75-80.22-20.01-158.83-71.88-152.87-164.64.8-12.41,2.68-34.73,6.09-45.82,24.76-80.47,120.56-140.72,201.52-147.78,4.36-1.12,8.64-1.53,12.82-1.22,6.71-.55,13.62-.84,20.71-.88.63-2.54,1.51-1.58,2.5.88l2.28-2.41c9.57-.35,18.38,1.26,26.42,4.85Z"/>
  <path class="st6" d="M554.11,220.75c-8.72-.78-20.54-2.44-28.7-2.44h-23.21c-2.42,0-9.44.93-12.82,1.22,11.09-3.46,22.86-1.64,34.19-3.05-25.59-17.62-44.84-37-59.84-64.13-.93-4.15,7.76-15.86,11.08-18.78,14.47-12.75,33.05-19.93,51.95-13.8,1.99-2.59,3.77-1.5,5.36,3.27,3.15,10.05,6.49,19.18,7.31,29.94.99,12.84-1.33,25.69-.6,38.45,10.66-17.58,11.21-40.28,15.85-59.87,2.56-10.83,15.99-55.03,24.39-59.87,7.91-4.55,21.18,8.22,26.36,14.07,44.89,50.7-3.08,114.04-56.24,130.69l4.91,4.3Z"/>
  <path class="st22" d="M709.22,403.94c31.37-15.18,59.07,8.56,66.61,39.16l1.78-.07c.27,10.55.52,21.55-2.44,31.75-1.56.19-.54-6.92-.57-6.55-1.35,14.94-3.2,20.59-15.49,30.04-40.13,30.84-83.13-26.33-65.77-65.02l-.78-1.42c8.32-6.57,14.21-14.22,14.17-25.95l2.49-1.94Z"/>
  <path class="st0" d="M532.13,123.04c-3.22-5.96-3.88.05-4.29.07-1.75.08-3.38-1.98-5.12-2.26-18.27-2.91-32.49,2.47-46.15,14.41l-12.83,17.09c-13.91-25.16-20.17-50.5-14.06-79.4,3.69-17.44,7.02-24.85,26.21-18.86,28.71,8.97,47.81,42.1,56.24,68.95Z"/>
  <path class="st15" d="M404.59,866.98c1.32-.32,19.9,3.44,20.77,4.69.58,13.51-5.9,40.69,6.67,49.45,3.74,2.61,30.67,10.99,21.96,19.62-5.98,5.92-31.5-3.02-40.98-1.88-8.93,1.07-15.04,10.63-25.7,6.21-13.69-5.68,9.35-18.78,12.92-23.89,5.29-7.56,3.91-21.37,3.71-30.59-.09-3.93-3.83-22.53.65-23.61Z"/>
  <path class="st19" d="M589.3,867.09c7.42-.54,1.78,12.41,1.48,17.47-.62,10.38-2.11,31.3,7.66,37.49,5.36,3.39,30.61,8.24,27.65,17.31-.49,1.49-1.61,1.72-2.97,1.97-5.16.96-18.54.32-24.47.05-5.3-.23-11.92-2.61-16.98-2.53-5.75.08-22.36,5.96-26.39,3.16-7.56-5.24,14.17-20.37,15.69-27.2,1.72-7.69-1.54-39.87.79-43.17,5.32-1.85,11.97-4.15,17.55-4.55Z"/>
  <path class="st16" d="M693.34,433.26c3.99-.31,2.42.67,1.25,3.08-12.81,26.4,8.45,68.62,39.68,69.08,21.4.31,38.55-16.86,39.69-37.95,2.17.15,1.29,5.76,1.21,7.32-.4,8.12-3.23,18.64-7.33,25.65.98-3.4,1.8-7.48,2.43-10.99-10.34,9.72-16,17.06-31.28,18.16-34.21,2.45-52.75-32.09-50.4-62.6.25-3.22,4.1-9.25.3-10.33-2.53-.72-4.33-.22-7.76-1.4,1.43-4.09,9.88-3.04,12.21,0Z"/>
  <path class="st16" d="M709.22,399.06c1.5,2.48.9,2.38,3.67,1.98,11.86-1.71,16.11-5.06,29.07-1.12,16.39,4.98,25.03,19.09,32.61,33.34l.6-10.99c1.33,7.97,2.22,12.37,2.44,20.76l-2.43,6.1c-3.47-22.66-21.45-49.72-46.98-48.86-6.62.22-15.06,1.42-17.16,8.56l-1.83-4.88c-3.44-.89-3.1-3.31,0-4.89Z"/>
  <path class="st1" d="M334.27,716.6c-.98-3.22,2.6-7.72,0-9.77.52-.83.11-2.87,1.84-3.66,2.32,4.66-.63,9.2-1.84,13.43Z"/>
  <path class="st10" d="M507.37,647.26c14.27-2.93,27.53,2.32,38.21,11.31,3.73,3.14,14.94,17.76,17.7,17.77s9.16-10.23,11.73-12.75c12.35-12.13,39.76-27.19,51.43-6.49,11.15,19.78-4.23,50.58-17.39,66.17-8.45,10.01-36.64,33.35-49.48,33.69-5.88.15-21.84-10.42-27.32-14.22-18.57-12.84-44.44-38.14-45.35-62.15-.46-12.06,7.57-30.68,20.49-33.34Z"/>
  <path class="st2" d="M438.09,433.26l-4.31.71c-.34,2.93-1.57,1.92-3.02-.71-5.62,4.86-15.53-4.72-19.26-9.78-3.81-5.18-10.56-18.66-5.17-23.2-2.67-1.07-3.49-2.62-.51-2.97l1.73-6.8c3.94-9.08,9.78-21.38,20.68-23.9,33.09-7.65,46.2,33.92,26.98,56.29-6.08,7.08-8.97,7.29-17.13,10.35Z"/>
  <path class="st18" d="M563.59,368.84c19.08-2.58,37.92,2.31,51.58,16.18,49.7,50.44-36.51,103.11-83.07,57.42-28.37-27.83-2.5-69.01,31.49-73.6Z"/>
  <path class="st11" d="M709.22,399.06c.2,1.45,0,3.33,0,4.89-.02,9.19-2.56,18.91-9.74,25.07-.79.68-5.78,4.16-6.14,4.25-3.25.75-8.61-.53-12.21,0-29.93-10.35-25.89-68.32,5.2-63.21,12.28,2.01,21.34,17.61,22.89,29.02Z"/>
  <path class="st17" d="M406.33,400.28l-1.49,2.62c-34.02-9.19-66.67,7.09-73.56,43.29-8.99,47.19,43.33,79.2,79.81,48.12,19.54-16.65,19.59-36.1,17.32-59.17l2.36-1.88c2.23.34,4.99-.24,7.33,0-1.52.57-2.7,1.85-4.88,1.23,5.23,27.67-2.72,56.07-28.28,70.03-33.82,18.46-75.91-4.51-79.24-42.52-4-45.68,36.2-75.89,79.42-64.16-.47-3.12,1.45-5.04,2.45-7.33.08,3.39-1.22,6.32-1.22,9.77Z"/>
  <path class="st12" d="M406.33,400.28c.01,14.23,9.4,30.69,24.43,32.98l1.27,26.3c-3.56,35.54-41.39,60.63-74.94,44.32-52.18-25.36-29.76-107.18,29.14-106.11,6.89.12,13.56,3.6,20.11,2.52Z"/>
  <path class="st5" d="M564.81,377.39c22.53-3.02,42.05,3.95,53.44,24.09,2.62,4.62,11.26,22.07.29,20.55-5.61-.77-15.06-6.27-21.64-7.75-22.46-5.07-38.29,4.89-59.43,6.6-10.89.88-12.06-.9-9.69-12.12,3.31-15.61,21.7-29.31,37.03-31.37Z"/>
  <path class="st7" d="M579.51,418.97c9.8-.62,23.6,2.66,32.46,7.11,9.05,4.54,5.74,8.4-.56,13.79-17.35,14.82-48.44,15.67-66.99,2.47-2.44-1.74-15.42-12.9-9-14.96,14.97-.73,29.24-7.47,44.1-8.41Z"/>
</svg>