<?xml version="1.0" encoding="UTF-8"?>
<svg id="_レイヤー_1" data-name="レイヤー_1" xmlns="http://www.w3.org/2000/svg" version="1.1" viewBox="0 0 400 400">
  <!-- Generator: Adobe Illustrator 29.6.1, SVG Export Plug-In . SVG Version: 2.1.1 Build 9)  -->
  <defs>
    <style>
      .st0 {
        fill: none;
        stroke: #002;
        stroke-miterlimit: 10;
      }

      .st1 {
        fill: #e84437;
      }

      .st2 {
        fill: #fff;
      }

      .st3 {
        fill: #002;
      }

      .st4 {
        fill: #f19a8e;
      }

      .st5 {
        fill: #f7c6bd;
      }
    </style>
  </defs>
  <path class="st5" d="M286.23,366.16c.26-.16.53-.29.77-.47,66.41-50.39,56.75-111.82,58.35-140.8,1.29-23.39,1.56-46.93-1.54-70.2-4.59-34.47-17.13-68.85-41.23-93.92-35.33-36.73-91.24-48.2-141.44-39.41-50.29,8.8-96.71,36.79-128.91,76.27-16.77,20.56-17.87,33.32-21.06,57.92C7.06,187.2-2.1,218.36.33,250.54c2.34,31.05,6.52,60.88,25.38,85.72,60.72,79.98,180.66,78.46,260.52,29.91Z"/>
  <path class="st1" d="M153.62,326.97c-11.75-6.22-20.72-16.12-26.74-27.98,20.59,6.14,43.02,5.93,63.49-.6-.72,8.49-4.95,15.49-11.5,20.93-6.55,5.44-17.72,11.62-25.25,7.64Z"/>
  <path class="st0" d="M277.91,204.13c28.37-.99,56.73-1.98,85.1-2.97"/>
  <path class="st5" d="M323.1,211.18c-1.12-12.06,4.55-24.52,14.37-31.6,9.83-7.07,23.45-8.5,34.52-3.61,8.96,3.96,15.94,11.59,20.63,20.19,11.12,20.35,9.67,46.95-3.6,65.97-13.27,19.02-37.73,29.56-60.68,26.15"/>
  <g>
    <path class="st3" d="M377.42,223.4c-.34,0-.3-.12,0-.31.46-.37-.04-.44-.12-.64-.37-.08-.88-.09-.95-.28-.08-.06-.11-.14-.11-.23.9-1.38-1.44-1.51-2.03-2.24-.59-.71-1.73-1.08-.97-2.43.82-.71.73-.99.41-1.18-.44-.26-.44-.77.18-1.63,1.65-1.49.59-1.65,1.82-3.02.64-.46,1.25-.79,1.85-1.07,1.5-.47,1.18.29,1.47.64-.07.17-.2.36-.09.44,1.02.45,2.17.93,1.55,2.28-.03.11-.11.24-.21.38-1.29,1.25-1.12,1.81-.67,2.24,1.13,1.12,1.99,2.43,2.85,3.75.44.75-.36,1.86.2,2.55.2,0,.18.04-.04.15-1.63,1.32-.94,2.01-.74,2.85.06.28.83.49-1.23.94-2.26.49-2.06.03-2.1-.23-.13-.97-.58-1.84-.43-2.9.02-.12-.06-.18-.63-.05Z"/>
    <path class="st3" d="M377.34,210.62l-1.45.75c-.88.41-1.47.59-1.5.35-.24-1.6-1.68-2.44-3.09-3.11-1.07-.59-1.7-1.6-3.43-1.47-.25.02-.46-.02-.28-.42-.42-.06-.47-.48-.3-1.13.37-1.49-1.07-1.08-1.71-1.45l-.13.06.06-.15c1.49-1.94,2.3-2.66,2.74-2.34.53.38,1.62.18,1.8.97l.02-.02c-.18.26-.14.28.11.1.27-.13.41-.12.27.19.02.76.31,1.2,1.53.76h-.02c.75-.15,1.71-.49,1.86,0,.03.09.04.2.04.32,1.21.77,2.63,1.48,3.44,2.65.06.06.1.14.11.24.07.91.73,1.39,1.25,1.98.02.08,0,.19-.07.32-.34.45-.69.89-1.26,1.43Z"/>
    <path class="st3" d="M343.59,256.65c-.01-1.39.15-2.79.42-4.22.15-.72.11-1.59.57-2.16.59-.79.84-1.86,1.85-2.32.15-.07.03-.38.04-.59-.55-.95.23-.81.14-1.41.22-1.56,2.05-1.41,2.07-3.37.02-.65,1.26.79,1.95,1.37.57.54,1.15,1.02,1.52,1.96-.31,1.09-.11,2.46-1.81,1.89h0c-.17-.1-.19-.04-.07.16h0c-.06.47-.18.87-.51,1.06h0c-.46-.22-.46,0-.24.38h0c-.39.47-.53,1.12-1.17,1.39-.67-.21-.81,0-.27.66.54.69.14.73.02.97-1.24-.98-1.24-.99-.8-1.25-.13.92-2.54.64-.77,2.61.52.56.14.67-.01.9-.39.58-1.11,1.06-1.23,1.78-.03.26.41.72-1.69.18Z"/>
    <path class="st3" d="M381.99,233.59l.03.29c-.28.06-.25.12.03.16l.02.15c-.5.15-.22.29-.23.43-.01.22.33.45-.03.68-.64.11-1.37.14-2.2.09-.36-.03-.66-.08-.89-.13-1.62-.4.28-.85-.33-1.27,1.36-.47-1.5-.55-1.56-.87,0-.16-.13-.31.05-.48,1.2-1.07,1.44-2.17.71-3.1-.03-.04.07-.1.11-.16.11-.06.25-.12.28-.17.26-.43.8-1.01,3.25-1.34,2.2-.29,1.11.46,1.22.8.16.05.43.08.45.15.27.87.5,1.75.57,2.65.04.37-.11.75-1.01,1.14-.97.36-.29.65-.47.98Z"/>
    <path class="st3" d="M343.59,256.65c.81.11.81-.06.71-.27-.4-.98,1.03-1.25.97-2.1-.01-.16.4-.12.56-.19.22-.1.43-.23-.16-.7-1.13-.91-.84-1.18-.77-1.55.06-.38.24-.71,1.19-.47.64.17-.15-.63.51-.44.23.07,0-.24.55.07.52.62-.44.37.68,1.3,1.58,1.63,1.65,2.14.41,2.08-.38.85-.61,1.75-.94,2.59-.15.36-.55.63-.86.96-.52.03.09.4-.49.42.13.08.1.1-.1.09-.82.08.14.61-.54.74.18.16.06.26-.17.33-.45.06-.01.3-.47.36.13.06.08.09-.14.09-.61.02.04.3-.66.32h-.05c-.46.03-.94-.01-1.42-.17l-.07-.02c-.27-.09-.31-.16-.16-.21-.06-.35-.38-.77.04-1.05.66-.08,0-.47.56-.57-.22-.24-.09-.41.13-.55.66-.04,0-.47.56-.53-.16-.24-.21-.45.13-.54Z"/>
    <path class="st3" d="M351.99,245.53l-1.21-1.12c-.72-1.11-.48-1.13-.03-.85.4.35.33.05.31-.18.06-.05.13-.08.2-.11.51-.43.94-1.02,1.44-1.54.23-.22.46-.47.84-.42.59.29.85.03.9-.78.12-.48.38-.72.65-.91.44-.23.79-.75,1.36-.66.19.07.38.12.47-.14.06-.18.14-.35.22-.5.26-1.27,1.17-.19,1.74-.16.91.08,1.54-1.53,2.53-1.41.63.06,1.26.21,1.87.34.83.14,1.58.82,2.43-.38l.08-.07.06.18c.11,1.37.45.35.67.64.19.26.49.22.13,1.85-.97,1.33-1.76,1-2.61,1.18-1.23.33-2.77-.87-3.74,1.04-.74.38-1.41.91-2.1,1.25-1.95.12-3.56,1.37-4.95,2.6-.21.2-.3.56-.68.53-.14-.04-.33-.18-.58-.4Z"/>
    <path class="st3" d="M367.59,206.71c.97-.07,1.34.48,2.38.42.35-.02.54.14.43.51-.17.57.22.57.89.39.51-.14,1.32-.49.65.38-.14.18,0,.16.29.03,1.28-.62,1.4-.18,1.3.3-.25,1.07.77,1.14,1.6,1.42.22.07.58.05.22.48-.7.82.02.7.54.72-.07.07-.16.15-.22.2-.57.61.93-.07.28.61-.5.52-.53.82-.49,1.06.03.16-.57.55-1.12.9-1.24.42-1.4.14-1.33-.24.19-.98-.85-1.17-.4-2.35.11-.15.39-.43.3-.43-.85,0-.93-.53-1.17-.96-.32-.49-.81-.85-1.35-1.16-.36-.21-.82-.32-.91-.75-.12-.54-.92-.47-1.52-.53-.43-.04-1.04.09-.38-.99Z"/>
    <path class="st3" d="M377.42,223.4c.33-.13.65-.26,1-.4.22-.08.52-.19.71-.22.15-.03.32.01.24.05-.97.54-1,.8-.44.93.25.06.25.18.2.32-.2.49-.68,1.01.43,1.17.31.04.12.28-.06.47-.36.37-.1.58.09.82.05.07.3.09.75-.02.51-.12,1.24-.34,1.13-.41-.34-.21.26-.67-.29-.78-.97-.18-.43-.67-.35-1.08.04-.22.51-.53.17-.67-.36-.15.68-.49,1.57-.78.54.28-.19.89-.13,1.28.07.51.09,1.03.12,1.54.02.24.28.44-.46.8-.47.21-.26.3-.23.42.21.81-.41,1.01-4.8,1.67-.36.01-.39-.04-.09-.16,1.94-.72.94-.96.22-1.2-.39-.73-.71-1.43-.03-2.43.31-.49-.19-.78.26-1.32Z"/>
    <path class="st3" d="M360.36,241.17c.02-1.29.32-1.7.67-1.63.5.08,1,.43,1.43-.13.11-.14.27.06.41.23.17.21.35.4.47.03.25-.74.54-.81.83-.1.09.21.21.27.31.16.74-.83,1.51-.51,2.3-.83l.07.04c.08.04.16-.47.25-.46.06,0,.11.03.16.09.07.09.15.2.22.3.05.06.1.14.14.22.07.08.16.07.26-.05.08-.13.15-.23.22-.33.16-.16.34-.49.49-.44.13.06.18.38.23.73.06.22.16.31.26.37.22.12.35.66.12,1.74-.32,1.49-.49.9-.66.9-.77.05-1.56.59-2.24.16-.45.22-.85.38-1.24-.42-.47-.97-.98.3-1.47-.38h0c-.56-.97-.98.49-1.54-.17-.06.26-.13.38-.26.1-.53-.84-.84.17-1.27.06l-.15-.23Z"/>
    <path class="st3" d="M375.94,239.77l.13.2.21.45c.31.65-.11-.29.02-.04.03-.04-.19-.58.16.04l-.05-.14.13.22c.22.34,1.05,2.16.96,1.77-.1-.37.42.4.45.21-.07-.23-.13-.43-.18-.58.18-.29-.09-1.13.51-.91.17.13.45.39.83.78.67.72,1.21,1.31,1.32,1.65-.04.65.26,2.05-.26,2.17.33.7.2.72-.05.49-.64-.67-.18.57-.35.74-.05.22-.02.6-.02.92-.07.11-.21.06-.49-.32-.14-.01-.28-.03-.47-.16-.3-.31-.73-.8-1.2-1.63-.93-2.25-1.25-3.6-1.38-4.32-.07-.49-.37-1.48-.58-2.1-.06-.17-.1-.31-.14-.41v.02c.64,1.48.07.05.47.95Z"/>
    <path class="st3" d="M366.29,242.21c.73-.23,1.48-.36,2.26-.52.13-.02.27-.11.41-.19,0,0,.07-.17.08-.24.04-.23.08-.52.08-.66-.03-.67-.29-.36-.44-.49-.14-.11-.11-.65-.05-1.29.22-.74.34-.62.42-.29.89-.91,1.56-.33,2.27-.17.59.12,1.06.63,1.54,1.02-.03.44-.06.88-.09,1.26-.1.94-.34,1.99-.78,1.99-.62-.02-1.33.39-1.75-.25-1.13.03-2.24.18-3.3.37-.24.04-.45-.12-.64-.54Z"/>
    <path class="st3" d="M370.06,202.66l-2.46-.64c-.17-.04-.17-.05-.97.96-.54.69-.68.55-1.11,1.05-.82-.06-1.69-.03-2.53.04-.15.01-.34.06-.62.28-1.26,1-1.14.24-.8-.96,1.28-.78,3.11-2.2,3.73-1.6-.28-.64-1.26-.26-.49-2.19.41-.43.58-.44.73-.42.99.13,1.98.37,2.32,1.36.25.76.86,1.05,1.69,1.16.43.05.92.06.51.96Z"/>
    <path class="st3" d="M365.71,236.72c-.18.36-.45-.18-.52,1.24,0,.17-.1.47-.13.43-.32-.47-.65.55-.98-.05-.32-.56-.69-.8-.96.17-.04.16-.17.06-.23-.12-.19-.52-.38-1.84-.58-.6-.07.5-.42-1.01-.55-.15-.02.17-.08.32-.13.27-1.06-.84-1.62,1.34-2.5,1.24-.15-.01-.26.21-.44-.05-.71-1.08-.99-.29-1.3.17-.16-.44-.26-.83-.29-1.19.79-1.66,2.1-2.13,3.4-2.18.49-.32,1.04-.16,1.58-.03.97.28,1.91.15,2.85.29.27.03.56-.14.77.53Z"/>
    <path class="st3" d="M375.47,238.8c.31.81.63,1.64.86,2.25.25.69.34,1.05.15.75-.14-.24.12.7.15,1.08.33.97.63,1.86.94,2.75-.51.49-1.76-1.03-2.59-1.63-.07-.05-.14-.36-.2-.53.1-1.35.37-.87.31-2.41.03-1.12-.23-3.13-.12-2.7.43,2.05.58,1.44,0-.55,0-.07-.07-.27.1.22.02-.03-.15-.52.1.06.07.16.16.38.3.7Z"/>
    <path class="st3" d="M381.67,238.22c.34.69.73,1.59.26,2.1-.91.08.28,1.39-.53,1.49.13.15.1.19-.08.11-.99-.27.25,1.35-.5,1.23l.13.2-.14-.08c-1.31-1.1-1.93-2.06-2.54-2.79-.39-.52-.48-.7-.34-.71.11,0,.31.07.33-.02,0-.07,0-.15-.03-.24.08-.31-1.28-1.22,1.2-.22-2.64-1.53-.29-1.06-2.32-1.92-.37-.16-.38-.21-.2-.24,1.59.29,2.87-.08,4.91.62.09.18.24.39-.16.47Z"/>
    <path class="st3" d="M379.16,240.21l.05.31c-.46-.29-.25,0-.67-.28l.1.58-.12-.04c-.15.04-.32,0,.23.81.06.49.08,1.07.02,1.51-.02.15-.33-.14-.5-.26.21.41.4.77.63,1.22-.16.15-1.28-1.67-.69-.2.12.33-.25-.28-.67-1.13-.12-.29-.3-.68-.46-1.06-.17-.37-.36-.77-.54-1.16-.19-.46-.27-.66-.08-.4.64,1.05.63.89-.09-.39-.27-.58-.31-.73-.08-.53,1.79,2.09-.61-1.2.21-.36l-.12-.13.09.08c-.37-.43-.33-.41-.11-.26l-.11-.12.17.14c.27.23.27.2.02-.03v-.06c.54.4-.02-.13.47.18.6.38,1.3.77,2.26,1.59Z"/>
    <path class="st3" d="M381.67,238.22l-.29-.57c-1.39-.36-.52-.87-3.79-.83-.73.04-.28-.28-1.05-.41-.2-.14-.58-.27-.57-.4.08-.88-.53-1.72.29-2.63.08-.09.38-.18.58-.27.31.09.32.29,1.49.1.55-.09.9-.14,1.02,0,.22.25.27.52-.47.79.14.4-2.52.82.36,1.15l.06.14c-1.8.75-1.66.77,2.51.92.23.55.89,1.44-.13,2Z"/>
    <path class="st3" d="M382.6,222.64c-.34-.55-1.23-.9-.51-1.78.03-.04.05-.08,0-.09-1.33-.27.11-1.6-1.75-1.62l-.87-1.74c-.06-.12.08-.33-.16-.36-.86-.09-.57-.7-.92-1.02-.35-.31.29-.97,1.55-1.93,1.22-.04.97.66.15,1.55-.16.3-.01.45.36.51.81,1.31,1.69,2.62,2.65,3.94.11.16.5.24.05.58-.52.4-.48.63-.37.84.16.31.32.62-.2,1.11Z"/>
    <path class="st3" d="M364.8,199.61c.34.47.76.83.94,1.47.05.2.92-.37.05.74-.62.8-.65.27-1.14.64-.16.12-.29.13-.26,0,.09-.48-.3-.25-.8.16-1.17.97-1.72,1.07-2.04.78.04-.42.58-1.33,1.07-1.86.78-.84,1.8-2.04,2.17-1.93Z"/>
    <path class="st3" d="M352.71,239.94c-.15-1.47.59-1.49,1.1-1.81.91-.63,2.02-.84,3.05-1.15.92-.52,1.87-1.01,2.86-1.41.23-.1.47-.36.79.36-.67.77-1.61.31-2.1,1.6-.03.09-.1.09-.17.03-.61-.53-.85.32-1.08.97l-.1.07c-.19.22-.41.3-.63.42-.11.08-.23.15-.35.19-.99-.26-1.5.75-2.18,1.19-.25.18-.24.9-1.18-.45Z"/>
    <path class="st3" d="M373.77,239.26c.13-.15.32-.43.4-.44.24-.34.52-.85.59-.62-.02,2.51.15,1.62.28,2.98.03.43.03.75,0,.96-.05.24-.12.27-.2.27-.07,0-.15-.03-.21-.24-.05-.5-.08-.79-.18-.25-.05.07-.09.08-.13.04-.08-.09-.17-.06-.29.1-.06.1-.12.16-.18.2-.24.06-.35-.49-.41-.93-.09-.39.18-.81.17-1.3.02-.21.07-.47.15-.78Z"/>
    <path class="st3" d="M379.16,240.21c-.8-.55-1.42-.97-2.06-1.41-.68-.56-.46-.43-.31-.38.13-.25.21-.67.32-1.05,2.08.58,2.11.64,1.93.79-.08.07-.11.16-.33.17-.66-.07,2.03,1.4.43,1-1.13-.4.16.63.01.88Z"/>
    <path class="st3" d="M381.79,236.22c-.71.06-.75.33-2.1.19-1.89-.2-3.03-.42-2.94-.65.04-.11.33-.22.95-.27.57-.05,1.25-.07,1.58-.19l2.22-.03c.49.06.61.13.34.23.13.24.28.49-.05.72Z"/>
    <path class="st3" d="M377.06,228.51c1.12-.21,1.99-.54,3.25-.73.96-.14,1.18-.35,1.29-.53.17-.28-.71-.38.49-.83.28.62.45,1.26.64,1.9.03.1-.18.23-.28.35l-.65-.77c-1.42.22-2.33.49-2.64.78-.26.24-.43.45-1.46.7-.87-.18-.52-.57-.64-.88Z"/>
    <path class="st3" d="M376.53,236.42c.25.06.54.13.74.17.23.07.12.19.95.14.53-.01,1.19-.03,1.79-.04.85-.01,1.43.11,1.22.23-.41.22.29.5.14.74-1.21-.16-2.5-.36-3.07-.23-.25.05-.83-.21-1.38-.3-.47-.29-.66-.25-.39-.71Z"/>
    <path class="st3" d="M375.05,241.5c-.13-1.1-.2-.58-.29-1.03,0-.89.05-1.32,0-2.28.14-.15.18-.35.17-.54.03.07.09.25.14.38l.11.51c.36,1.39.15,1.52-.15.26-.01.08.02.45.11,1.21.12,1.05.09,1.47-.01,1.55,0,.27-.04.25-.09-.06Z"/>
    <path class="st3" d="M365.59,204.13c.36-.07.5.1,1.31-.49,1.08-.79,1.16-.42.6.76-.13.27-.12.38-.03.44.13.08.26.16-.17.75-.42-.15-.82-.3-1.25-.46-.35-.11-.8-.1-.46-.99Z"/>
    <path class="st3" d="M370.23,242.37c.64-.03,1.29-.05,1.94,0,.39-1.12-.02-.77.22-1.57.64-.97.99-.88,1.1-.2-.28.76-.43,1.63-.9,2.42-.95.35-1.56-.19-2.34-.27-.04,0-.02-.24-.03-.36Z"/>
    <path class="st3" d="M375.05,241.5l.09.06c.09.81.27,1.76.06,1.79-.13.02-.27.08-.42.12-.06.21-.13.23-.19-.08-.24.45-.57.47-.76-.13l-.41-.18c.37-1.92.43-.49.65-1.49h0c.19-.54.26-.58.32-.01h.05s.05,0,.05,0c.05-.28.08-.29.1,0h.19c.07.54.15.55.18,0l.09-.07Z"/>
    <path class="st3" d="M367.11,238.85l-.17.03c-.08.25-.13.26-.17.03h0c-.04-.52-.15-.73-.3-.7l-.82.16c-.08-.82.14-1.02.2-1.54.66-.43,1.26.07,1.7,1.1l-.1.52c-.13.41-.25.73-.35.4Z"/>
    <path class="st3" d="M377.19,227.15c.58.03,1.63-.11,1.99.04.52.21.64.19-1.11.78-.39.14-.73.26-1.09.39-.35-.33-.52-.67.22-1.2Z"/>
    <path class="st3" d="M376.49,238.83c.18.25.49.66.49.76.01.09.74,1.07.61,1.02-.18-.07-.86-.86-1.31-1.43-.06-.25-.13-.49-.22-.7-.03-.07.05,0,.43.34Z"/>
    <path class="st3" d="M373.4,240.86l-1.01-.07.46-1.41.92-.12.15.29c-.28.41-.36.88-.52,1.31Z"/>
    <path class="st3" d="M380.16,245.58c0-.94.05-1.81-.04-2.64.14.1.28.23.42.4.14.17.21.28.21.28.03.68-.01,1.39-.07,2.1-.02.21-.06.41-.53-.14Z"/>
    <path class="st3" d="M373.4,240.86l.52-1.32c-.15.09-.15.63-.34,1.27-.1.55.15.25-.06,1.14-.21.94-.36.64-.6,1.11-.18.23-.28.19-.33-.07l.8-2.14Z"/>
    <path class="st3" d="M363.58,241.41c.38-.17.78-.3,1.18-.42.13-.04.24.18.29.8-.51.53-.95.46-1.47-.38Z"/>
    <path class="st3" d="M369.05,238.53l-.42.28-.34.03c-.15.29-.27.2-.42.66h0c-.17.47-.27.48-.33.05h0c-.07-.3-.12-.65-.05-1.3l.08-.32,1.09.06c.17,0,.34.01.4.53Z"/>
    <path class="st3" d="M362.03,241.24c.36-.21.74-.38,1.12-.54.15-.06.3,0,.42.71-.51.13-.95.69-1.54-.16Z"/>
    <path class="st3" d="M372.93,243.07c.08-.17.18-.4.23-.51.26-.43.3-.8.32-1.2,0-.12.06-.36.09-.54.14.24.3.5.48.77-.21,1.05-.37.57-.65,1.49h-.48Z"/>
    <path class="st3" d="M371.99,203.69c-.09.07-.22.18-.27.2-1.2.42-1.8.34-1.27-.96l1.53.76Z"/>
    <path class="st3" d="M374.17,203.49c-.18.16-.34.32-.47.47-.36-.12-.56-.38-1.32-.1-.27.1-.28-.1-.41-.16,1.67-1.09,2.01-.71,2.2-.21Z"/>
    <path class="st3" d="M381.4,241.82c-.04-.47-.07-.91-.14-1.35-.04-.19.04-.3.67-.14.27.69.4,1.54-.53,1.49Z"/>
    <path class="st3" d="M380.81,243.15c-.23-.64,0-.87-.42-1.6-.17-.28.43.09.92.37.1.61.16,1.32-.5,1.23Z"/>
    <path class="st3" d="M360.51,241.77l-.15-.59c.32-.19.65-.4.99-.54.13-.06.27.16.42.71-.43.12-.85.26-1.27.43Z"/>
    <path class="st3" d="M381.99,233.59c-1.18-.3-.82-.6.47-.98-.16.33.34.64-.47.98Z"/>
    <path class="st3" d="M380.75,243.62l-.63-.68-1.38-1.5c-.68-.93-.84-1.17-.11-.63l.02.02c.75.79,1.14,1.46,2.15,2.45.2.34.17.45-.05.35Z"/>
    <path class="st3" d="M379.25,247.42c.08-.11.23,0,.26-.25v-1c.11.14.22.32.33.55.11.23.16.36.16.39-.04.27.03.79,0,1.13-.05.25-.27.03-.76-.82Z"/>
    <path class="st3" d="M381.85,235.51l-.34-.23-.06-.76c.13-.06.27-.08.41-.06.14.01.22.05.22.05.19.33.61.68-.23,1Z"/>
    <path class="st3" d="M376.37,239.71c.65,1.08,1.25,2.1,1.17,2.14-.06.03-.59-.89-1.08-1.76-.2-.44-.27-.6-.09-.39Z"/>
    <path class="st3" d="M345.32,259.19c-.05-.21-.1-.42-.14-.62-.02-.12.19-.17.69-.12.19.34.03.57-.54.74Z"/>
    <path class="st3" d="M376.47,240.42c.04.22.14.62.1.63h0s-.49-1.08-.49-1.08c.07.06-.26-.73.39.45Z"/>
    <path class="st3" d="M376.8,238.42l.31.38c-.11-.02.1.26-.68-.35-.03-.14-.47-.52.37-.03Z"/>
    <path class="st3" d="M373.83,243.26l.76.13c-.25.63-.58.54-.76-.13Z"/>
    <path class="st3" d="M380,247.1l-.49-.93c.14-.17-.36-1.4.6-.1.12.59.12,1.05-.11,1.03Z"/>
    <path class="st3" d="M377.15,222.6c.21-.07.4-.15.55-.23.07.19.63.24-.29.71l-.26-.48Z"/>
    <path class="st3" d="M375.94,239.77c.04.12.06.18.13.37.21.58.02.18-.59-1.33-.07-.22-.08-.25.47.95Z"/>
    <path class="st3" d="M345.96,258.36c-.06-.2-.45-.52.49-.42.2.25.11.4-.49.42Z"/>
    <path class="st3" d="M343.46,257.19c.05.25.5.6-.56.53,0-.23-.23-.54.56-.53Z"/>
    <path class="st3" d="M342.77,258.27c.08.26.49.57-.56.57-.32-.31.17-.44.56-.57Z"/>
    <path class="st3" d="M349.51,249.41c-.48-.62-.23-.61.24-.38.14.33.02.41-.24.38Z"/>
    <path class="st3" d="M344.67,259.88c-.13-.17-.33-.38.47-.36.08.17.12.32-.47.36Z"/>
    <path class="st3" d="M343.87,260.29c-.03-.15-.17-.34.66-.32.05.16.26.34-.66.32Z"/>
    <path class="st3" d="M382.08,234.5l-.64.02c-.05-.12.04-.24.63-.33v.32Z"/>
    <path class="st3" d="M376.35,238.52l.11.26c-.61-.67-.71-.76-.11-.26Z"/>
    <path class="st3" d="M342.4,260.12l1.42.18c-.62.08-.71.08-1.42-.18Z"/>
    <path class="st3" d="M370.19,202.74c-.43.37-.54.43-.11-.1.19-.13.23-.1.11.1Z"/>
    <path class="st3" d="M372.69,216.58c.36-.16.59-.24.67-.19l-.67.19Z"/>
    <path class="st3" d="M382.05,234.03c-.56-.03-.56-.08-.03-.16l.03.16Z"/>
    <path class="st3" d="M376.43,238.51c.43.4.36.37-.02.03l.02-.03Z"/>
    <path class="st3" d="M350.27,247.96c-.37-.45-.34-.5.07-.16l-.07.16Z"/>
    <path class="st3" d="M342.17,259.88l.16.21c-.61-.12-.57-.19-.16-.21Z"/>
    <path class="st3" d="M380,211.15c-.19.52.06.79.47.98.61.28.43.98-.54,1.98-.08-.05-.28-.04-.23-.15.43-.97-.55-1.21-.82-1.81-.12-.27-1.02,0-1.23-.18.2-.19.38-.36.55-.53-.15-.36-.44-.64-.86-.82-.2-.36-.22-.34,1.06-1.27.8.25.8,1.03,1.26,1.51.1.09.22.19.34.29Z"/>
    <path class="st3" d="M379.67,220.65c-.09.04-.2.09-.28.12-.33.1-.38.09-.14-.04.07-.03.22-.08.32-.1.06-.01.07.01.1.02Z"/>
    <path class="st3" d="M378.21,211.44l-.55.53.55-.53Z"/>
    <path class="st3" d="M377.32,221.93c-.41.07-.43.01-.05-.19l.05.19Z"/>
    <path class="st3" d="M373.69,203.97c1.42.59,2.47,1.59,3.3,2.74.08.12.23.18-.04.53-1.39-.68-2.23-1.76-3.49-2.47-.16-.09-.23-.24.22-.8Z"/>
    <path class="st3" d="M376.98,207.2c.75.51,1.53,1.05,1.38,2.17-.37-.05-1.08.11-1.02-.19.16-.77-.76-.8-.79-1.44,0-.08.28-.36.43-.55Z"/>
    <path class="st3" d="M347.08,246.13c-.14-.59.37-.6-.08-1.5.73-.96,1.16-2.47,2.69-2.51,1.17-.47,1.91-1.57,3.02-2.19h0c.13.07.34.27.37.17.25-.91.92-1.07,1.43-1.54.37-.36.83-.56,1.47-.16.45,1.11.24,1.1.14,1.28-.19.33-.66,0-.58.92l-.79.66c0,.75-.23.98-.75.69-.24.23-.5.44-.73.69-1.11-.38-.89,1.39-1.96,1.1l-.1.13c.13.27.09.3-.1.13-.38-.25-.5-.12-.3.4-.25-.2-.48-.32-.76-.6-1.02-1-1.15-1.1-.75-.22.41.91.38,1.18-.18.98-.4-.14-.97-.39-.43.55.08.14.09.28,0,.23-1.34-.92-.7.32-.79.72-.06.24,0,.6-.81.07Z"/>
    <path class="st3" d="M379.23,235.16c-.65,0-1.51,0-1.72-.1-.41-.2-1.04-.4-.26-.63.47-.12,1.08-.28,1.62-.42.97.08,1,.25.51.41-.82.26-.57.49-.15.74Z"/>
    <path class="st3" d="M343.4,259.54c-.12-.05-.32-.12-.33-.16,0-.04.17-.05.27-.07.12.06.32.13.33.16.01.04-.17.05-.27.07Z"/>
    <path class="st3" d="M358.06,242.46c-.55.35-1.11.7-1.63,1.04-.64.35-1.26.7-1.89,1.04-.74-.67-.72.07-.92.35-.32.43-.69.73-1.27.78-.08,0-.25-.12-.38-.19.46-.68.74-1.77,1.6-1.9,1.14-.17,1.8-1.24,2.84-1.65.44-.16.92-.33,1.64.53Z"/>
    <path class="st3" d="M351.29,243.75c.37-.48.77-.94,1.2-1.39.13-.14.25-.34.76.28-.41.46-.82.87-1.19,1.34-.12.15-.2.35-.78-.24Z"/>
    <path class="st3" d="M355.53,240.61c-.25-1,.03-.93.2-1.1.17-.17.45-.07.25-1.1l.32-.19c.18.24.35.44.55.92l.11.47c-.49.33-.98.63-1.42,1Z"/>
    <path class="st3" d="M353.98,241.96l.75-.69c.24,1.27.04,1.5-.75.69Z"/>
    <path class="st3" d="M357.15,238.53l.24.77-.29.21-.19-.46c-.16-.81-.04-.89.24-.51h0Z"/>
    <path class="st3" d="M357.1,239.5c.12.54.07.58-.15.1h0c-.05-.35,0-.38.15-.11h0Z"/>
    <path class="st3" d="M351.08,244.01l.05-.07.05-.06c.29.49.26.53-.1.13Z"/>
    <path class="st3" d="M367.48,238.25l.05,1.3c-.18.01-.39.2-.42-.7l.37-.6Z"/>
    <path class="st3" d="M367.54,239.55l.33-.05c-.22.83-.32.84-.33.05Z"/>
    <path class="st3" d="M367.87,239.5c.15-.62.29-.78.42-.66-.16.54-.29.65-.42.66Z"/>
    <path class="st3" d="M366.77,238.91l.08-.02h.08c-.1.54-.16.55-.17.02Z"/>
    <path class="st3" d="M378.63,240.8l.11.63v.15c-.72-.92-1.05-1.38-1.3-1.74-.34-.47.21.04,1.19.96Z"/>
    <path class="st3" d="M376.57,241.06c.12.29.27.64.36.86.12.29.03.12-.19-.37-.03-.08-.11-.28-.13-.33-.02-.08-.03-.12-.05-.17h0Z"/>
    <path class="st3" d="M378.9,244.06l-.63-1.22.63,1.22Z"/>
    <path class="st3" d="M375.04,238.8c.03-.29.03-.5.15-.26.97,3.47.44,3.28-.15.26Z"/>
    <path class="st3" d="M378.54,240.24c-.01-.11.09-.11.67.28,0,.12-.1.14-.67-.28Z"/>
    <path class="st3" d="M352.71,239.94c.36.95.2,1.09-.03,1.07-.94-.05-1.51.59-2.04,1.2-.18.19-.17.64-.95-.08.44-.49.87-1.01,1.37-1.47.55-.25,1.09-.52,1.66-.72Z"/>
    <path class="st3" d="M357.09,239.49l-.15.1-.66-1.38c.24-.07.36-.63.86.31-.12.11-.2.31-.06.96Z"/>
    <path class="st3" d="M374.39,241.57h-.32c.29-.96.25-.99.32,0Z"/>
    <path class="st3" d="M374.96,241.58c-.01.9-.11.88-.18,0h.18Z"/>
    <path class="st3" d="M374.59,241.57h-.1c.06-.57.08-.57.1,0Z"/>
  </g>
  <g>
    <path class="st4" d="M69.04,287.87c4.39-3.84,5.95-10.59,3.68-15.96s-8.19-8.97-14.01-8.49c-5.81.47-11.08,4.97-12.45,10.64-3.12,12.89,12.78,22.54,22.77,13.81Z"/>
    <path class="st4" d="M271.09,288.96c4.85-4.23,6.57-11.68,4.06-17.61-2.5-5.93-9.04-9.89-15.45-9.37-6.41.52-12.22,5.49-13.73,11.74-3.44,14.22,14.09,24.86,25.12,15.23Z"/>
    <path class="st2" d="M116.26,221.67c-1.91-7.16-7.73-13.21-14.89-16.78-7.16-3.57-15.53-4.82-23.71-4.52-7.66.28-15.35,1.92-21.93,5.46-6.58,3.54-11.98,9.07-14.25,15.66,9.7,9.09,23.49,15.43,37.49,15.36,14-.08,27.71-5.99,37.29-15.19Z"/>
    <path class="st3" d="M74.14,201.88c9.58-2.19,20.52,3.52,23.17,12.1,2.65,8.58-3.45,18.56-12.91,21.14-9.46,2.58-20.67-2.7-23.74-11.16-3.07-8.47,2.53-18.68,11.86-21.63"/>
    <path class="st2" d="M201.93,221.81c2-7.48,8.07-13.79,15.55-17.52,7.47-3.73,16.22-5.04,24.75-4.72,8,.29,16.03,2.01,22.9,5.7,6.87,3.69,12.51,9.47,14.88,16.36-10.13,9.49-24.53,16.12-39.14,16.04-14.62-.08-28.94-6.26-38.94-15.86Z"/>
    <path class="st3" d="M242.75,201.88c-9.58-2.19-20.52,3.52-23.17,12.1-2.65,8.58,3.45,18.56,12.91,21.14s20.67-2.7,23.74-11.16c3.07-8.47-2.53-18.68-11.86-21.63"/>
    <g>
      <path class="st3" d="M148.13,253.43c-.33-.13-.25-.16.1-.13.55,0,.09-.22.07-.33-.34-.15-.82-.27-.82-.36-.06-.04-.06-.08-.04-.11,1.33-.48-.78-1.26-1.07-1.88-.27-.62-1.1-1.24.16-1.88,1.05-.2,1.08-.4.9-.62-.25-.3,0-.63.97-.95,2.18-.35,1.34-.78,3.09-1.14.78-.04,1.48-.02,2.14.01,1.53.21.87.51.94.78-.14.07-.35.13-.29.2.66.54,1.39,1.07.26,1.65-.08.05-.21.1-.36.15-1.7.36-1.8.74-1.58,1.09.28.46.51.92.7,1.39.2.49.37.79.55,1.75.2.95-.9,1.56-.57,2.45.19.11.16.15-.09.1-1.96.1-1.39.94-1.41,1.74,0,.24.7,1.06-1.41-.4-2.32-1.62-2.02-1.61-1.99-1.74.1-.49-.18-1.09.31-1.49.05-.05,0-.11-.59-.28Z"/>
      <path class="st3" d="M153.38,246.13l-1.63-.06c-.97-.06-1.55-.16-1.44-.31.71-.97-.04-1.92-.66-2.86-.5-.75-.29-1.54-1.61-2.27-.2-.11-.32-.23.09-.35-.26-.23-.01-.47.57-.7,1.36-.54.1-1.02-.05-1.53l-.13-.04.15-.04c2.44-.12,3.52-.04,3.57.3.07.41.94.8.47,1.22h.03c-.31.04-.31.07,0,.09.28.06.38.12.07.2-.52.35-.6.68.58.98h-.03c.66.23,1.59.44,1.36.72-.04.05-.1.11-.19.16.46.82,1.06,1.64,1.04,2.47.02.05,0,.1-.04.15-.46.47-.19.92-.09,1.37-.03.05-.11.09-.24.14-.54.12-1.08.25-1.83.35Z"/>
      <path class="st3" d="M144.69,274.03c-.97.05-1.96.08-2.96.06-.51,0-1.14.18-1.53-.09-.53-.37-1.33-.32-1.64-1.07-.05-.12-.29.08-.45.12-.75.74-.62.04-1.09.3-1.21.27-1.07-1.31-2.69-.64-.53.19.64-1.3,1.1-2.06.44-.64.82-1.27,1.6-1.9.89-.11,2.02-.77,1.53.86h0c-.08.18-.03.17.13,0h0c.39-.11.68-.11.83.12h0c-.19.46-.02.39.3.09h0c.35.22.86.14,1.03.66-.19.65-.04.73.5.08.56-.65.56-.28.74-.23-.83,1.34-.83,1.34-1,1,.7-.09.28,2.18,1.91.2.48-.59.51-.22.67-.11.41.27.65.95,1.17,1,.18.02.59-.42-.14,1.63Z"/>
      <path class="st3" d="M148.98,260.57h-.21c-.25-.35-.26-.33-.1,0h-.11c-.45-.61-.36-.3-.49-.34-.17-.05-.15.32-.54-.14-.45-.76-.86-1.58-1.27-2.48-.17-.39-.31-.72-.41-.97-.76-1.76.54.38.35-.27,1.18,1.59-.81-1.65-.81-1.65.06.03,0-.11.2.13.43.49.83.88,1.16,1.16.59.47.53.01.19-.58-.02-.04.08.04.13.07.12.09.27.22.3.23.32.15.94.43,3.42,2.57,2.21,1.96,1.02,1.46,1.08,1.79.15.2.41.52.42.6.07.75.26,1.7.17,2.3l-.35-.06c-.33-.06-.86-.36-1.94-1.54-1.09-1.25-.79-.52-1.21-.81Z"/>
      <path class="st3" d="M144.69,274.03c.22-.78.09-.78-.07-.68-.77.47-.75-.91-1.39-.72-.12.03-.04-.36-.08-.51-.05-.2-.12-.38-.53.25-.79,1.21-.96.99-1.22,1-.26,0-.5-.07-.25-1,.17-.62-.48.27-.29-.37.07-.23-.18.05.09-.52.51-.61.25.32,1.03-.9,1.35-1.8,1.76-1.94,1.62-.76.63.22,1.29.35,1.9.62.26.11.4.53.61.8-.06.49.32-.1.23.47.08-.12.09-.09.05.1-.09.79.48-.11.45.55.16-.18.2-.04.21.19-.06.44.21.04.15.49.07-.12.08-.07.03.14-.12.6.22-.02.07.66v.05c-.1.45-.24.9-.46,1.36l-.03.06c-.12.25-.18.29-.18.14-.25.04-.6.32-.69-.1.09-.65-.32-.01-.27-.55-.21.21-.3.08-.35-.13.09-.63-.31-.02-.26-.53-.2.17-.35.22-.36-.1Z"/>
      <path class="st3" d="M136.71,269l-.9,1.36c-.9.96-.93.78-.71.32.28-.44.03-.28-.17-.18-.05-.03-.08-.07-.1-.12-.36-.28-.9-.37-1.36-.58-.19-.11-.44-.18-.41-.49.2-.55-.06-.69-.84-.52-.47.02-.76-.14-.99-.34-.3-.32-.89-.54-.88-1.03.04-.17.07-.33-.21-.37-.2-.03-.39-.08-.56-.13-1.4-.12-.35-.99-.39-1.43-.08-.7-1.8-1.34-1.75-2.2.04-.53.17-1.04.29-1.52.18-.67.8-1.08-.28-2.14l-.06-.09h.18c1.34.33.36-.27.68-.36.28-.07.26-.32,1.76.51,1.2,1.18.93,1.6,1.17,2.25.41.84-.7,1.85,1.43,2.51.51.38,1.07.78,1.5,1.1.19,1.16,1.37,1.87,2.45,2.51.16.11.47.04.45.35-.03.12-.14.32-.32.6Z"/>
      <path class="st3" d="M148.13,240.29c.76.42.64.87,1.43,1.29.26.14.31.3-.01.45-.49.22-.19.39.44.57.49.14,1.33.27.27.46-.22.04-.1.09.21.13,1.38.17,1.2.43.82.65-.82.47-.02.89.51,1.32.14.12.45.22-.09.34-1.04.21-.39.39.04.57-.1.01-.21.03-.29.04-.8.15.84.26-.06.43-.69.13-.87.29-.96.45-.05.1-.77.14-1.43.17-1.28-.15-1.28-.38-1.03-.59.63-.51-.08-1.01.95-1.52.18-.05.57-.1.49-.13-.7-.31-.47-.65-.42-.98.06-.4-.09-.79-.31-1.18-.15-.26-.44-.52-.24-.79.25-.34-.35-.65-.75-.97-.28-.22-.81-.45.41-.69Z"/>
      <path class="st3" d="M148.13,253.43c.36.07.7.14,1.07.21.23.05.56.13.74.17.15.05.3.15.22.14-1.09-.11-1.19-.03-.69.32.22.16.19.23.09.27-.32.17-.9.08.15.89.29.23.05.24-.17.2-.44-.08-.23.2-.1.47.03.07.27.28.74.59.52.35,1.28.81,1.19.68-.28-.41.4-.25-.11-.75-.9-.83-.27-.73-.1-.98.09-.12.61-.06.32-.37-.3-.31.79.04,1.73.33.42.58-.42.65-.46.99-.05.47-.15.9-.23,1.32-.04.19.18.59-.62.2-.51-.27-.32-.03-.31.08.07.79-.57.29-5.01-3.51-.36-.32-.38-.35-.06-.11,2.01,1.5,1.1.48.45-.08-.21-.48-.37-.72.52-.7.44-.02.05-.33.64-.37Z"/>
      <path class="st3" d="M132.23,264.41c-1.39-.02-1.82-.28-1.8-.53.03-.36.36-.65-.25-1.05-.16-.1.04-.19.21-.26.21-.09.39-.17,0-.33-.77-.33-.82-.58-.13-.63.21-.01.26-.09.15-.18-.84-.76-.52-1.28-.75-1.98l.04-.04s-.42-.29-.4-.35c0-.05.05-.08.11-.09.09-.02.2-.04.3-.07.06-.02.14-.02.21-.03.08-.03.09-.09,0-.22-.1-.12-.18-.21-.26-.3-.12-.19-.39-.46-.3-.55.09-.07.39.01.72.12.22.05.3,0,.38-.04.16-.11.67.03,1.56.68,1.46,1.06.94.9.87.97-.04.55.69,1.36.15,1.54.28.38.53.65-.46.58-1.2-.04.46.69-.37.79h0c-1.15.15.7.7-.08.93.31.07.47.12.14.17-.87.26.26.53.17.78l-.23.09Z"/>
      <path class="st3" d="M139.12,253.55l.3.12.04.29c.06.41.15-.19.22-.03.18.04.46-.25.55.21l.05-.07.02.17c.04.27-.25,1.39-.07,1.24.18-.15.24.49.4.49.08-.11.16-.2.24-.26.42.15.91-.24,1.26.42.03.19.03.5,0,.93-.09.74-.18,1.37-.32,1.54-.4,0-.87.64-1.2.1-.14.48-.2.36-.25.04-.1-.8-.38-.08-.55-.22-.26-.01-.47.46-.69.02-.31.06-.57.07-1.01-.62-.45-1.4-.75-2.61-.48-3.16.24-.52.47-1.59.9-1.86h.01c.2,1.01.4.05.58.65Z"/>
      <path class="st3" d="M133.06,261.07c-.28-.55-.49-1.16-.58-1.78-.01-.1-.11-.26-.17-.41,0,0-.14-.13-.19-.17-.19-.13-.44-.29-.56-.35-.6-.28-.39.04-.53.1-.13.05-.6-.19-1.17-.5-.62-.47-.47-.51-.15-.44-.61-1.09.2-1.34.59-1.76.26-.28.74-.35,1.17-.4.13-.01.25-.02.36-.03.37.3.73.59,1.04.84.79.7,1.49,1.46,1.42,1.76-.06.1-.08.24-.1.37-.04.3-.07.56-.63.38-.19.72-.12,1.54.16,2.28.06.16-.15.18-.66.1Z"/>
      <path class="st3" d="M152.72,239.49l-1.16-1.39c-.08-.1-.08-.11-1.36-.05-.87.04-.86-.09-1.53-.08-.53-.44-1.05-.88-1.6-1.34-.1-.08-.26-.16-.6-.23-1.56-.28-.88-.58.29-.89,1.39.43,3.63.8,3.51,1.36.34-.4-.54-.77,1.46-1.12.58.04.7.12.77.21.5.54.86,1.08.33,1.64-.41.43-.22.84.25,1.24.25.21.57.42-.37.64Z"/>
      <path class="st3" d="M127.47,259.62c.33.25-.22.33,1.18.79.16.06.46.21.42.22-.48.13.55.65-.05.76-.54.12-.82.38.19.78.16.06.07.14-.11.16-.52.05-1.9-.02-.59.36.53.13-1.04.19-.13.42.17.04.33.11.29.14-.8.79,1.53,1.41,1.57,2.02,0,.11.26.19,0,.33-1.06.6-.22.83.34,1.01-.43.18-.83.3-1.21.35-1.83-.55-2.62-1.83-2.73-2.99-.38-.48-.24-.96-.1-1.41.24-.82.16-1.65.34-2.44.06-.22-.08-.52.59-.51Z"/>
      <path class="st3" d="M138.52,252.9c-.13,1.22-.13,2.5-.51,2.16-.18-.15-.25.57-.33.9.15.69.28,1.32.41,1.95-.44.62-1.09.05-1.8-.13-.05-.01-.21-.25-.32-.37-.53-1.23-.11-.93-.61-2.29-.27-1.02-.81-2.76-.24-2.45,1.12,1.66,1.21,1.02,1.36-.52.16-.05.31-.19.55.18.46-.03.96-.54,1.5.57Z"/>
      <path class="st3" d="M145.41,259.66c-.31.35-.75.77-1.26.25-.39-1.02-.78.37-1.13-.48-.05.15-.08.12-.09-.07-.21-1.08-.65.42-.83-.4l-.05.17v-.17c.06-1.58.3-2.19.53-2.89.18-.44.33-.53.44-.38.08.12.16.33.2.34.05,0,.09-.01.14-.04.22.07.3-1.4.55,1.23,0-2.79.55-.29.32-2.44-.05-.4-.03-.41.06-.21.41,1.71,1.13,3.05,1.48,5.27-.08.09-.16.26-.37-.19Z"/>
      <path class="st3" d="M143.25,257l-.17.07c.03-.48-.1-.25-.1-.71l-.43.13-.05-.13c-.13-.15-.26-.35-.49.29-.34.08-.69.21-1.02.21-.11,0-.19-.35-.28-.53-.06.27-.12.52-.19.81-.19-.13-.22-1.53-.54-.72-.06.18-.12-.3-.08-.86,0-.18.15-.4.21-.62.06-.23.13-.48.19-.72.13-.26.25-.36.33-.13.02.8.13.77.33-.13.25-.34.47-.39.65-.12.1,2.06.82-.7,1.06.26l.04-.13v.11c.16-.41.25-.36.31-.11l.05-.12v.19c0,.3.03.3.1.03h.11c.06.6.18,0,.16.51-.03.64-.03,1.37-.2,2.41Z"/>
      <path class="st3" d="M145.41,259.66l.25-.31c-.31-1.51.35-.54-.95-4.06-.28-.78,0-.28-.29-1.11-.05-.21-.2-.62-.17-.6.23.15-.17-.61.64.45.08.11.35.46.53.7.22.34.14.33,1.11,1.69.46.64.76,1.05.77,1.16.02.2-.14.19-.76-.66-.16.11-1.85-2.88-.34.29,0,0-.03.03-.04.05-1.3-2.03-1.13-1.91.68,2.67-.35.14-.68.84-1.42-.28Z"/>
      <path class="st3" d="M153.3,255.51c-.16-.71-.91-1.4.05-1.86.04-.02.07-.05.03-.08-1.2-.78.61-1.52-1.1-1.83l-.17-1.22c-.01-.08.19-.18-.01-.25-.74-.26-.2-.55-.39-.82-.18-.27.68-.49,2.24-.69,1.11.29.59.59-.54.9-.28.13-.21.26.1.37.11.47.25.93.42,1.4.09.23.18.46.28.7.11.4.22.81.34,1.24.06.21.41.48-.13.61-.62.14-.64.37-.6.63.06.37.12.77-.52.89Z"/>
      <path class="st3" d="M151.73,235.76c-.18.35-.21.7-.62,1.05-.13.11.85.3-.56.33-1.02.03-.6-.21-1.19-.31-.2-.03-.28-.1-.16-.14.44-.15.02-.27-.61-.36-1.48-.23-1.89-.51-1.85-.81.36-.15,1.42-.22,2.13-.15,1.14.1,2.72.17,2.84.4Z"/>
      <path class="st3" d="M131.93,270.44c-1.28.67-1.49-.11-1.92-.52-.85-.74-1.27-1.75-1.8-2.65-.64-.8-1.39-1.67-1.89-2.61-.12-.22-.4-.47.32-.68.85.66.46,1.49,1.94,1.9.1.03.11.09.05.15-.47.54.41.74,1.17.86l.09.08c.25.13.37.31.53.48.09.09.18.17.24.27-.1.89,1.02,1.14,1.52,1.6.2.17.87-.07-.26,1.12Z"/>
      <path class="st3" d="M132.11,254.72c-.07-.18-.23-.47-.19-.52.42-.64.9-1.42,1.85-1.42.88,2.25,1,1.32,1.56,2.48.16.37.26.66.3.86.04.24-.01.3-.07.34-.06.03-.13.04-.28-.11-.27-.41-.48-.64-.27-.12,0,.08-.03.12-.08.11-.11-.03-.17.03-.15.22.02.11.02.18.01.24-.1.16-.55-.24-.96-.51-.29-.25-.71-.61-1.12-.97-.17-.15-.37-.36-.6-.61Z"/>
      <path class="st3" d="M143.25,257c.06-.86.11-1.51.16-2.19.11-.73.11-.5.13-.34l.69.33c.42,2.21.39,2.25.24,2.05-.07-.09-.14-.12-.22-.35-.19-.71-.14,2.13-.46.44-.14-1.19-.33.2-.54.06Z"/>
      <path class="st3" d="M146.83,259.94c-.39-.8-.59-.9-1.08-2.33-.7-2.03-1.18-3.26-1.09-3.15.05.05.22.37.56,1.06.32.63.68,1.38.92,1.76l1.24,2.48c.24.55.23.67.02.36-.11.12-.24.24-.58-.17Z"/>
      <path class="st3" d="M146.58,254.69c1.14.92,2.05,1.65,3.32,2.68.97.83,1.22.9,1.36.87.2-.05-.62-.86.65-.12.1.68.21,1.37.3,2.01.01.1-.21-.02-.33-.04-.17-.4-.34-.79-.52-1.21-1.44-1.26-2.37-1.98-2.73-2.18-.3-.16-.49-.24-1.55-1.21-.83-.91-.43-.63-.5-.81Z"/>
      <path class="st3" d="M144.41,254.18c.09.27.18.58.25.79.07.24-.02.12.32,1.01.22.57.49,1.28.74,1.94.36.91.52,1.55.35,1.3-.31-.46-.2.3-.41.14-.37-1.33-.74-2.68-1.03-3.3-.12-.27-.18-.88-.34-1.47-.03-.5-.07-.71.12-.4Z"/>
      <path class="st3" d="M135.43,255.55c-.53-.91-.48-.4-.79-.74-.41-.77-.42-1.2-.87-2.03.82-.37,1.79-.59,2.84-.74.12-.01.28.19.42.3l-.44.38c-.23,1.11-.5,1.33-1.36.33-.11.09-.1.41.11,1.07.28.9.32,1.32.22,1.44.07.25.03.24-.13,0Z"/>
      <path class="st3" d="M148.65,238.05c.29.15.26.3,1.24.43,1.31.17,1.08.35-.17.64-.28.07-.37.12-.35.19.02.1.05.2-.67.28-.16-.28-.31-.54-.49-.84-.15-.23-.46-.46.44-.69Z"/>
      <path class="st3" d="M133.56,258.7c.06-.27.16-.52.29-.74.07-.12.14-.24.24-.33-.79-.94-.66-.51-1.25-1.14-.57-.96-.33-1.13.3-.7.65.67,1.09,1.29,1.72,2.22.02.41-.15.54-.36.65-.18.09-.4.16-.51.33-.01.02-.27-.18-.41-.27Z"/>
      <path class="st3" d="M135.43,255.55h.13c.35.69.74,1.47.62,1.58-.08.08-.14.19-.2.28.06.21.04.26-.13.02.09.51.07.71-.41.23l-.29.02c-1.19-1.73-.13-.59-.65-1.52h0c-.21-.54-.11-.62.27-.18l.04-.03.05-.02c-.1-.26-.08-.29.1-.06l.2-.1c.3.43.36.4.2-.1l.08-.11Z"/>
      <path class="st3" d="M129.64,259.17s0,.09,0,.14c.23.15.24.19.01.14h0c-.49-.15-.7-.13-.7,0,.02.24.07.48.11.71-.8-.18-.98-.42-1.48-.63-.37-.69.23-1.06,1.26-1.05l.47.27c.36.25.65.46.33.42Z"/>
      <path class="st3" d="M146.96,254.5c.56.44,1.61,1.21,1.93,1.58.46.51.58.66-1.24-.66-.41-.3-.76-.56-1.14-.84-.31-.39-.39-.52.45-.08Z"/>
      <path class="st3" d="M142.67,254.12c-.14.19-.3.53-.42.54-.13,0-.34.84-.42.71-.11-.19-.14-.97-.21-1.51l.87-.23c.09-.02.17.07.18.49Z"/>
      <path class="st3" d="M133.32,256.01c-.17.14-.33.3-.49.46l-1.02-1.14c.09-.21.19-.42.3-.62l.32.11c.36.38.66.77.89,1.18Z"/>
      <path class="st3" d="M140.6,258.68l1.33-.49c0,.16,0,.33-.04.51-.03.18-.06.27-.06.27-.34.1-.69.2-1.02.29-.1.02-.2.03-.21-.57Z"/>
      <path class="st3" d="M133.32,256.01l-.89-1.18c.2.06.59.46,1.05,1.01.41.45.35.08.9.87.58.84.26.62.6,1.17.15.3.09.31-.13.1l-1.52-1.98Z"/>
      <path class="st3" d="M132.22,262.45c-.21-.27-.45-.58-.6-.88-.07-.1.18-.11.97.09.68.51.66.68-.37.79Z"/>
      <path class="st3" d="M129.69,257.53l.15.44-.05.27c.23.22.13.29.53.58h0c.4.31.4.38,0,.27h0c-.28-.06-.6-.14-1.19-.43l-.29-.18c.06-.29.18-.57.27-.86.05-.13.11-.26.58-.09Z"/>
      <path class="st3" d="M132.14,263.37c-.25-.25-.47-.52-.68-.8-.05-.1-.11-.22.76-.12.2.36.94.68-.08.92Z"/>
      <path class="st3" d="M134.98,257.89c-.11-.19-.26-.43-.34-.55-.21-.45-.45-.76-.77-1.06-.08-.09-.26-.29-.39-.44.34.08.68.18,1,.3.54.97.11.61.65,1.52l-.16.22Z"/>
      <path class="st3" d="M153.39,240.77c-.11,0-.29-.01-.33-.02-1.16-.3-1.54-.61-.25-.96l.58.98Z"/>
      <path class="st3" d="M155.11,241.53c-.24.01-.46.02-.67.04-.18-.19-.14-.39-.89-.56-.27-.06-.13-.16-.18-.24,1.96.18,1.95.47,1.74.76Z"/>
      <path class="st3" d="M143.03,259.44l.79-.26c.11-.04.21.05.34.73-.35.26-.84.51-1.13-.48Z"/>
      <path class="st3" d="M142.1,258.97c.26-.32.46-.1.75-.62.11-.21.08.46.08,1.01-.39.15-.63.33-.83-.4Z"/>
      <path class="st3" d="M132.88,264.31l-.65.09c-.24-.2-.47-.43-.68-.66-.07-.09.13-.17.73-.21.19.28.39.53.6.77Z"/>
      <path class="st3" d="M148.98,260.57c-.61-1.32-.18-.84,1.21.81-.41-.28-.32.23-1.21-.81Z"/>
      <path class="st3" d="M141.83,258.97l.1-.77.19-1.56c.23-.77.4-.95.43-.15v.02c-.18.85-.39,1.23-.52,2.47-.1.26-.16.24-.2,0Z"/>
      <path class="st3" d="M139.11,258.53c.25-.14.5-.28.8-.42.02.14.01.3-.01.46-.03.16-.06.25-.06.25-.32.01-.49.75-.73-.29Z"/>
      <path class="st3" d="M147.41,260.11l-.02-.36.51.03c.12.16.23.32.31.49.08.17.11.25.11.25-.13.17-.2.59-.92-.42Z"/>
      <path class="st3" d="M140.97,253.97c-.1.8-.21,1.55-.34,1.48-.1-.06-.04-.72,0-1.35.13-.26.25-.34.33-.13Z"/>
      <path class="st3" d="M146.83,272.35c-.16.04-.33.09-.48.12-.09.02-.09-.19.04-.67.29-.17.43,0,.45.55Z"/>
      <path class="st3" d="M140.23,254.14l-.82.23h0s0-.7,0-.7c.27,0,.68-.38.81.46Z"/>
      <path class="st3" d="M143.54,254.47l-.13.34c-.01-.11-.13.12-.12-.73.28-.01.21-.51.25.39Z"/>
      <path class="st3" d="M135.42,257.65c.13-.08.27-.16.41-.23.18.67.12.78-.41.23Z"/>
      <path class="st3" d="M139.84,258.82l.07-.71c.16.11.44-.66.44.61-.19.24-.37.34-.51.09Z"/>
      <path class="st3" d="M148.12,253c.23.02.43.04.6.06,0,.11.53.35-.49.24l-.11-.3Z"/>
      <path class="st3" d="M139.12,253.55c-.08.08-.16.11-.22.26-.18.4-.28.14-.35-.89.2-.15.42-.15.58.64Z"/>
      <path class="st3" d="M146.33,271.71c-.16.04-.46.43-.23-.47.22-.2.33-.12.23.47Z"/>
      <path class="st3" d="M145.05,274.13c.19-.07.51-.49.26.53-.16,0-.41.21-.26-.53Z"/>
      <path class="st3" d="M145.67,274.79c.19-.07.5-.48.27.55-.27.29-.26-.17-.27-.55Z"/>
      <path class="st3" d="M139.82,269.8c-.51.6-.5.39-.3-.09.26-.21.33-.14.3.09Z"/>
      <path class="st3" d="M147.19,273.03c-.15.11-.34.29-.15-.49.14-.07.26-.09.15.49Z"/>
      <path class="st3" d="M147.3,273.83c-.11.01-.27.14-.07-.66.12-.03.3-.23.07.66Z"/>
      <path class="st3" d="M148.32,260.53l-.42-.74c.06-.04.2.08.66.78l-.24-.04Z"/>
      <path class="st3" d="M143.03,253.98l-.3.11c.18-.67.29-.77.3-.11Z"/>
      <path class="st3" d="M146.83,275.24l.46-1.36c-.09.6-.12.69-.46,1.36Z"/>
      <path class="st3" d="M152.75,239.59c-.57-.02-.68-.05,0-.09.23.03.23.06,0,.09Z"/>
      <path class="st3" d="M146.35,248.13c.39.01.63.04.68.09l-.68-.09Z"/>
      <path class="st3" d="M148.68,260.57c-.36-.65-.32-.64.1-.01h-.1Z"/>
      <path class="st3" d="M143.18,254.08c-.1.47-.13.39-.1-.03l.1.03Z"/>
      <path class="st3" d="M138.69,269.6c-.37.46-.41.45-.13,0h.13Z"/>
      <path class="st3" d="M146.62,275.44l.18-.14c-.23.58-.26.54-.18.14Z"/>
      <path class="st3" d="M155.4,247.19c-.42.22-.34.43-.08.64.38.31-.06.62-1.38.93-.05-.05-.23-.1-.14-.14.8-.42.07-.81.14-1.21.03-.18-.88-.29-.97-.45.27-.04.51-.08.74-.12.05-.24-.06-.47-.33-.7q0-.25,1.57-.33c.53.37.16.76.31,1.14.03.08.1.16.14.25Z"/>
      <path class="st3" d="M151.1,252.58c-.1,0-.21,0-.3.01-.34-.02-.39-.05-.12-.07.07,0,.24,0,.33.01.06,0,.06.03.09.04Z"/>
      <path class="st3" d="M153.71,246.83l-.74.12.74-.12Z"/>
      <path class="st3" d="M148.47,252.73c-.41-.07-.42-.09,0-.1v.1Z"/>
      <path class="st3" d="M154.43,241.56c.71.81.87,1.64.85,2.47,0,.08.08.17-.33.25-.77-.8-.67-1.62-1.22-2.43-.07-.1-.03-.2.69-.29Z"/>
      <path class="st3" d="M155,244.27c.33.5.66,1-.1,1.52-.27-.14-.96-.28-.74-.41.57-.34-.17-.65.17-.98.04-.04.43-.08.66-.13Z"/>
      <path class="st3" d="M137.18,272.88c-.47.3-.45-.15-1.19.53-.75-.31-1.99-.16-2.06-1.38-.42-.77-1.4-.96-2.01-1.6h0c.04-.12.21-.35.12-.34-.88.08-1.17-.56-1.75-.91-.44-.27-.75-.66-.44-1.28,1.07-.54,1.09-.36,1.29-.31.35.09.1.55,1,.28l.74.47c.7-.2.92-.11.71.39l.64.3c-.27,1,1.23.18,1.01,1.14l.11.04c.22-.2.25-.18.11.03-.2.39-.08.43.34.1-.16.27-.26.5-.49.83-.81,1.17-.89,1.31-.18.7.74-.65.96-.72.81-.2-.11.37-.32.94.44.19.11-.11.23-.16.18-.08-.75,1.42.26.46.57.42.19-.02.47-.18.03.67Z"/>
      <path class="st3" d="M146.19,257.22c-.35-.72-.81-1.66-.93-1.9-.16-.45-.52-1.14.04-.26.35.54.82,1.24,1.23,1.86.62,1.09.53,1.11.13.53-.65-.94-.57-.68-.47-.24Z"/>
      <path class="st3" d="M146.67,274.24c-.06.11-.16.3-.18.31-.03,0,0-.17.01-.27.06-.11.16-.3.18-.31.03,0,0,.17-.01.27Z"/>
      <path class="st3" d="M133.79,265.69c.35.25.73.52,1.05.76.33.32.65.62.97.93-.56.82.08.53.33.58.39.07.62.29.69.71,0,.06-.09.24-.14.36-.58-.11-1.49.03-1.66-.56-.18-.81-1.18-.91-1.66-1.57-.19-.26-.42-.59.43-1.2Z"/>
      <path class="st3" d="M135.24,270.19c-.41-.13-.8-.29-1.21-.45-.13-.05-.31-.06.21-.69l1.19.44c.12.05.29.03-.18.7Z"/>
      <path class="st3" d="M132.15,267.88c-.95.43-.93.17-1.13.07-.2-.11-.13-.36-1.16-.04l-.25-.25c.22-.18.4-.35.87-.57l.47-.15c.4.34.77.68,1.2.95Z"/>
      <path class="st3" d="M133.6,268.74c-.23-.11-.48-.23-.71-.39,1.16-.55,1.35-.51.71.39Z"/>
      <path class="st3" d="M129.81,266.89l.77-.27.25.21-.45.21c-.82.23-.93.12-.57-.15h0Z"/>
      <path class="st3" d="M130.83,266.82c.55-.16.59-.13.12.1h0c-.34.09-.38.05-.12-.1h0Z"/>
      <path class="st3" d="M135.47,270.26l-.06-.02-.05-.02c.4-.4.43-.39.11.03Z"/>
      <path class="st3" d="M129.13,258.66l1.19.43c0,.15.16.37-.69.08l-.51-.51Z"/>
      <path class="st3" d="M130.33,259.09v-.27c.72.48.73.55,0,.27Z"/>
      <path class="st3" d="M130.33,258.82c-.54-.35-.65-.53-.53-.58.46.33.54.48.53.58Z"/>
      <path class="st3" d="M129.66,259.45v-.07s-.01-.07-.01-.07c.5.27.51.31.01.14Z"/>
      <path class="st3" d="M142.56,256.48l-.43.15-.11.02c.17-.84.33-1.2.48-1.48.2-.38.19.24.06,1.31Z"/>
      <path class="st3" d="M139.41,254.37c-.03.19-.07.42-.1.56-.05.19-.09.09-.1-.23,0-.06.03-.19.05-.22.05-.06.1-.08.15-.12h0Z"/>
      <path class="st3" d="M140.52,257.14l.19-.81-.19.81Z"/>
      <path class="st3" d="M135.23,253.05c.36-.29.82-.48,1.35-.33.17,2.72.02,2.81-1.35.33Z"/>
      <path class="st3" d="M142.99,256.36c.1-.02.14.09.1.71-.06.02-.13-.09-.1-.71Z"/>
      <path class="st3" d="M131.92,270.44c.81-.62.94-.55.93-.36-.02.77.61.93,1.11,1.18.16.07.55-.1-.03.78-.44-.16-.86-.36-1.29-.57-.25-.33-.49-.68-.72-1.03Z"/>
      <path class="st3" d="M130.82,266.83l.12.1-1.33.72c-.11-.19-.72-.26.19-.77.13.09.36.13,1.01-.06Z"/>
      <path class="st3" d="M134.76,255.97l-.27.18c-.4-.95-.38-.96.27-.18Z"/>
      <path class="st3" d="M135.35,255.66c.31.81.26.83-.2.1l.2-.1Z"/>
      <path class="st3" d="M134.95,255.86l-.1.06c-.25-.52-.21-.54.1-.06Z"/>
    </g>
  </g>
  <path class="st3" d="M203.23,159.4c-.16.24.5,1.4.93,2.27.27.55.82,1.26,1.13,1.42.82.63,1.41.93.95-.35-.1-.28-.09-.45-.06-.57.18-.68.36-1.32.53-1.98l.11.08-.02-.12c.63.5.7.14.85-.11.2-.3.39-.58.58-.87.48.28.81.32.92,0,.76.75.74.22.83-.11.13-.48.17-1.11.6-1.12.35-.01.47-.37.67-.63.29-.39.61-.73,1.02-.92.35-.15.77-.16.8-.86,0-.07.22.19.33.29.91.49,1.11-.33,1.87-.12.27.08.46-.05.25-.86.07.08.13.14.2.23.68.56,1.09.59,1.3.24.15-.26.36-.33.94.37,1.09.65,1.39-.28,1.91-.79.56-.52.5-2.44,1.64-1.73.07,0,.12-.04.16-.11.14-.06.11-.49.13-.8.02-.01.03-.04.05-.06.03.06.06.1.09.17l.35-.24c.18.25.28.27.24-.01.47.34.64-.08,1.06.15.84.47,1.36.16,1.88-.22.51.58.76.41.96.06.13.23.17.21.11-.09.22-.13.57.12.59-.62.05.03.11.1.13.07.62-.68,1.48-.66,2.48.21.15.13.25,0,.37-.01.1.15.22.39.3.44.83.56,1.36-.12,2.04-.16.1,0,.14-.34.2-.53.32.18.55-.06.76-.49h0c.13.14.23.12.28-.22l1.84-.04c.24.74.4.32.58.26h0s0,0,0,0l.1-.02h.1s.04.16.04.16l.03-.11c.13.54.21.45.26-.14h0l.03.09.02-.11c.09.34.17.41.25.38.26-.11.53-.23.79-.31.2.21.4.16.61-.15.1.17.2.1.31-.14.1.19.2.1.31-.13l.03.14.05-.07c.14.7.33.34.51.33l.18.1c.05.66.16.65.29.52h0c.18.92.48.5.75.47.03.05.07.12.1.18,0,0,.02.03.03.03.01.01.03.04.04.04.59-.11,1.18-.16,1.79-.25.04-.32.1-.55.16-.78-.03.2-.08.44-.16.78.51.21,1.12-.16,1.73-.37.05-.02.15-.28.23-.43h0l.57-.24c.32.23.58.63.93.7.44.08.75.59,1.44-.17-.04.43.06.44.16.46l.66.15c.06.89.25,1.37.74,1.11v.15s.05-.05.05-.05c-.07.57.12.5.26.58.46.28.97.44,1.34.9.2.27.37.56.73.49-.16.62.04.52.18.53.59.05,1.19.12,1.78.21.53.29.99.69,1.6.86.34.09.5.51,1.39-.31l.83.72,1.21.32c.22,1.04,1.26.86,1.98,1.18.1-.08.16-.11.23-.16.19.13.41.22.72.19.44-.18.32.44,1.04-.11.15-.02.39-.15.44-.04.3.73,1.07.87,1.57,1.34.36.34.99.38,1.5.56l2.97,1.13c-.06.28.11.3.34.25-.3.58,0,.51.15.59,0,.21.06.36.32.28-.07.33-.19.71.14.6-.01.4.39.33.65.42-.18.29-.16.34.21-.03h0l.05-.04c.5-.39.56-.45.8-.91l.02-.04c.45-.63.21-.56.08-.6.1-.15.1-.2,0-.14.24-.44.11-.49-.05-.5.05-.21.03-.34-.17-.28.1-.49-.03-.71-.36-.71.08-.14.07-.18-.03-.11.21-.48.11-.61-.16-.54h0c-.18-.35-.27-.8-.55-1.04-.64-.56-1.37-1.01-2.08-1.5.22-1.06-.33-1.16-1.84.05-.16.16-.25.22-.34.28.12-.13.27-.27.47-.49-.19-.12-.21-.48-.82-.05-.58.44-.74.33-.55-.24-.2-.56-.79-.62-1.19-.93h0c0-.22-.08-.31-.34-.16h0s0,0,0,0c-.2-.25-.53-.32-.92-.29,0,0,0,0,0,0l-.14-.03c.2-1.5-.96-1.08-1.85-1-.16.15-.24.3-.36.45l.1-.21c.11-.26.16-.45.15-.56-.08-.3-.39-.25-.6-.35-.36-.17-.72-.32-1.09-.48,0-.06,0-.08.01-.15-.51-.28-1.01-.57-1.54-.8-.21-.09-.45-.14-.68-.2-.23-.16-.47-.32-.68-.52-.6-.18-1.25-.25-1.9-.31-.05.03-.1.04-.15.07l.14-.32-1-.26c.04-.25-.06-.19-.21-.03-.02-.89-.59-.61-.98-.68h0c-.06-.83-.42-1.01-.94-.75h0c-.06-.77-.46-.7-.85-.63-.06-.38-.2-.56-.4-.57-.9-.05-1.82,0-2.71.03,0-.11.01-.3-.02-.31-.61-.09-1.16-.44-1.87-.05-.22.65-.33,1.27-.39,1.89h0s.4-1.89.4-1.89c-.04-.19-.12-.21-.24,0l-.37.08-.32-.08c-.12-.48-.35-.43-.64.08h0c-.02-.2-.08-.18-.16-.01h0c-.03-.11-.06-.31-.11-.32-.69-.24-1.37-.79-2.16-.29h0c-.35-.58-.77-.59-1.18-.56-.27-.9-.66-.25-.98-.22-.19-.2-.39-.1-.59.11-.09-.26-.19-.36-.29.05-.09-.5-.21-.5-.33-.47-.39.08-.77.23-1.15.38-.09-.19-.17-.21-.23.03l-.04-.13-.03.15c-.35-.57-.68-.37-1-.18-.04-.16-.08-.18-.1-.04-.43-.78-.78-.44-1.11-.14-.47-.3-.86.16-1.23.55-.09-.18-.16-.2-.22-.17-.47-.34-.8.18-1.17.4-.23-.24-.39-.09-.54.06-.38-.65-.57-.25-.78-.05l-.23.05-.11.04-.11.06-.21.08c-.38-.63-.53-.17-.8-.27-.43-.7-.74-.78-1-.7-.66.17-1.26.49-1.87.77-.05.02-.03.25-.05.39h0c-.1-.07-.23-.23-.3-.2-.46.2-.89.46-1.32.71,0,0,0,0,0,0t0,0c-.37-.59-.48-.35-.66-.32-.38.06-.76.11-1.13.2-.29.07-.81-.48-.96-.03-.1-.19-.14-.2-.11-.03-.42-.42-.64-.27-.85-.13-.15.1-.32.14-.66-.28-.3-.37-.32-.04-.42.06-.86.84-1.78,1.53-2.69,2.19-.02.3-.12.42-.36.27-.66-.64-1.12-.85-1.14-.13-.01-.01-.02-.02-.03-.03-.11-.09-.21-.16-.29-.19-.08-.04-.13-.03-.2-.05-.5-.41-.84-.43-.98-.07-.13.31-.32.5-.71.3-.07.08-.13.18-.2.25-.33.32-.87.28-1.06.84-.05-.05-.1-.1-.14-.14-.1-.07-.18-.11-.24-.1-.15.12-.3.25-.46.37-.09.05-.18.1-.26.17-.21.13-.44.23-.74.2-.07,0-.13.02-.18.06-.87.48-1.44,1.43-2.08,2.26-.05-.02-.09-.02-.14-.02-.07-.1-.14-.21-.22-.32-.38.03-.68.21-.02,1.74,0,0,0-.01,0-.02l-.72,1.03c-.21-.18-.23-.07-.17.17-.13-.14-.16-.12-.09.06v.02c-.62-.54-.68-.18-.77.13-.18.6-.5.99-1.09.97-.78-.03-1.14.59-1.43,1.29-.04.11-.07.24.16.68ZM249.18,162.34s0-.07.02-.13h0s0,0,0,0c.01,0,.03,0,.04,0-.02.04-.04.09-.06.13ZM249.43,164.04s.09-.06.13-.09c-.05.05-.1.08-.13.09ZM236.78,158.15s0,0,0,.01h0s0-.01,0-.01ZM242.92,160.36s0,0,0,0h0s0,0,0,0ZM210.55,167.95s.02-.02.03-.03c0,.02-.02.02-.03.03Z"/>
  <path class="st3" d="M120.26,158.72c-.29-.7-.64-1.32-1.43-1.29-.59.02-.91-.37-1.09-.97-.1-.31-.16-.68-.78-.13v-.02c.08-.18.06-.2-.08-.06.06-.24.04-.35-.17-.17l-.72-1.03s0,.01,0,.02c.66-1.53.37-1.71-.02-1.74-.08.11-.15.22-.22.32-.04,0-.09,0-.14.02-.64-.83-1.21-1.78-2.08-2.26-.05-.04-.11-.06-.18-.06-.3.03-.53-.07-.74-.2-.08-.07-.17-.12-.26-.17-.15-.12-.3-.25-.46-.37-.06,0-.14.03-.24.1-.05.05-.1.1-.14.14-.19-.56-.73-.52-1.06-.84-.07-.07-.14-.16-.2-.25-.39.2-.58.02-.71-.3-.14-.35-.47-.33-.98.07-.07.03-.12.01-.2.05-.08.03-.18.1-.29.19-.01.01-.02.02-.03.03-.01-.72-.48-.51-1.14.13-.24.14-.34.03-.36-.27-.91-.66-1.83-1.35-2.69-2.19-.11-.1-.12-.42-.42-.06-.35.42-.51.38-.66.28-.21-.14-.43-.29-.85.13.03-.16-.01-.15-.11.03-.15-.44-.67.1-.96.03-.37-.09-.76-.14-1.13-.2-.18-.03-.29-.26-.66.32t0,0s0,0,0,0c-.43-.26-.86-.52-1.32-.71-.07-.03-.2.13-.3.2h0c-.01-.13,0-.36-.05-.39-.61-.28-1.22-.6-1.87-.77-.26-.08-.57,0-1,.7-.27.1-.42-.36-.8.27l-.21-.08-.11-.06-.11-.04-.23-.05c-.21-.21-.4-.6-.78.05-.16-.15-.31-.3-.54-.06-.37-.22-.71-.74-1.17-.4-.06-.03-.13-.02-.22.17-.37-.39-.75-.85-1.23-.55-.33-.3-.68-.64-1.11.14-.02-.13-.06-.12-.1.04-.32-.19-.65-.39-1,.18l-.03-.15-.04.13c-.07-.23-.15-.22-.23-.03-.38-.14-.76-.29-1.15-.38-.12-.03-.24-.04-.33.47-.1-.42-.19-.31-.29-.05-.2-.22-.4-.31-.59-.11-.33-.03-.72-.67-.98.22-.42-.04-.84-.02-1.19.56h0c-.79-.5-1.46.06-2.15.29-.05.02-.07.21-.11.32h0c-.08-.17-.14-.19-.16.01h0c-.29-.51-.52-.56-.64-.08l-.33.08-.37-.08c-.12-.22-.2-.2-.24,0l.4,1.89h0c-.06-.62-.17-1.24-.39-1.89-.71-.39-1.26-.04-1.87.05-.03,0-.02.2-.02.31-.89-.03-1.81-.08-2.71-.03-.2,0-.34.19-.4.57-.39-.08-.79-.14-.85.63h0c-.52-.27-.88-.08-.94.74h0c-.39.08-.96-.21-.98.68-.15-.16-.25-.22-.21.03l-1,.26.14.32c-.05-.03-.09-.03-.15-.07-.65.05-1.3.13-1.9.31-.21.2-.45.36-.68.52-.23.06-.47.1-.68.2-.53.23-1.04.52-1.54.8.02.07,0,.1.01.15-.36.16-.73.31-1.09.48-.21.1-.52.05-.6.35,0,.12.04.3.15.56l.1.21c-.12-.15-.2-.3-.36-.45-.88-.08-2.05-.49-1.85,1l-.14.03s0,0,0,0c-.4-.03-.73.04-.92.29h0s0,0,0,0c-.26-.15-.35-.06-.34.16h0c-.4.3-.99.36-1.19.93.19.56.03.67-.55.24-.61-.43-.62-.07-.82.05.2.21.35.36.47.49-.09-.07-.18-.12-.34-.28-1.51-1.21-2.05-1.11-1.84-.05-.7.49-1.44.93-2.08,1.5-.27.24-.37.69-.55,1.04h0c-.28-.06-.38.07-.16.54-.11-.07-.12-.03-.03.11-.33,0-.46.23-.36.71-.2-.07-.22.07-.17.28-.16.02-.29.06-.05.5-.1-.06-.1-.01,0,.14-.13.03-.36-.03.08.6l.02.04c.24.46.29.52.8.91l.05.04h0c.37.38.39.33.21.03.26-.09.66-.02.65-.42.33.11.21-.27.14-.6.26.08.31-.07.32-.28.16-.08.45,0,.15-.59.23.05.4.03.34-.25l2.97-1.13c.51-.18,1.13-.21,1.5-.56.5-.48,1.27-.61,1.57-1.34.05-.11.29.02.44.04.71.55.59-.07,1.04.11.31.04.53-.06.72-.19.07.04.13.07.23.16.72-.32,1.76-.14,1.98-1.18l1.21-.32.83-.72c.89.82,1.04.41,1.39.31.6-.17,1.07-.58,1.59-.86.6-.09,1.2-.16,1.79-.21.14-.01.34.09.18-.53.35.07.53-.22.73-.49.37-.46.88-.61,1.34-.9.13-.08.33,0,.26-.58l.07.05v-.15c.48.26.66-.22.72-1.11l.66-.15c.1-.02.21-.03.16-.46.7.75,1,.25,1.44.17.35-.07.62-.47.93-.7l.57.24h0c.08.15.18.41.23.43.61.21,1.22.58,1.73.37-.09-.34-.13-.58-.16-.78.06.23.13.46.16.78.61.08,1.2.13,1.79.25.02,0,.03-.03.04-.04,0,0,.02-.02.03-.03.03-.05.06-.13.1-.18.27.02.57.45.76-.46h0c.13.12.24.13.29-.53l.18-.1c.18.01.38.37.51-.33l.05.07.03-.14c.11.23.21.32.31.13.11.23.21.31.31.14.21.3.4.36.61.15.26.08.53.2.79.31.08.04.17-.03.25-.38l.02.11.03-.09h0c.06.59.14.68.26.14l.03.11.04-.16h.1s.1.01.1.01c0,0,0,0,0,0h0c.19.05.34.47.58-.26l1.84.04c.05.33.15.36.28.22h0c.21.43.45.67.76.49.07.18.11.52.2.53.68.04,1.21.71,2.04.16.08-.05.2-.29.3-.44.12.01.22.15.37.01,1-.87,1.86-.89,2.48-.21.03.03.09-.05.13-.07.02.74.36.49.59.62-.06.3-.02.32.11.09.2.35.45.52.96-.06.52.38,1.04.69,1.88.22.42-.23.59.19,1.06-.15-.03.29.06.26.24.01l.35.24c.03-.07.06-.11.09-.17.02.02.03.05.05.06.02.32,0,.74.13.8.04.07.1.1.16.11,1.15-.71,1.09,1.22,1.64,1.73.53.51.82,1.44,1.91.79.58-.7.79-.63.94-.37.21.35.62.32,1.3-.24.07-.09.13-.15.2-.23-.22.81-.03.94.25.86.75-.21.95.61,1.87.12.11-.11.33-.37.33-.29.03.7.45.71.8.86.41.18.73.53,1.02.92.19.26.32.62.67.63.43.01.47.64.6,1.12.09.34.07.86.83.11.11.32.44.29.92,0,.19.29.38.56.58.87.15.25.23.61.85.11l-.02.12.11-.08c.18.66.35,1.3.53,1.98.03.12.04.28-.06.57-.45,1.28.13.98.95.35.31-.16.85-.87,1.13-1.42.43-.87,1.09-2.03.93-2.27.23-.44.2-.57.16-.68ZM74.1,162.21s.02,0,.04,0h0c.01.06,0,.08.02.13-.02-.04-.04-.08-.05-.13ZM73.78,163.95s.09.05.13.09c-.04,0-.08-.04-.13-.09ZM86.56,158.15h0s0,0,0,0c0,0,0,0,0,0ZM80.41,160.35h0s0,0,0,0c0,0,0,0,0,0ZM112.76,167.91s.02.02.03.03c0-.01-.02-.02-.03-.03Z"/>
  <g>
    <path class="st0" d="M1.94,203.42c28.37-.99,38.75-.34,39.54-1.38"/>
    <g>
      <path class="st0" d="M39.84,231.31c-5.81-19.31,2.76-41.97,19.83-52.71,17.07-10.74,41.12-8.7,56.22,4.65,15.11,13.36,20.1,36.87,11.83,55.26-17.96,39.95-75.53,33.81-87.88-7.21Z"/>
      <path class="st0" d="M189.11,231.31c-5.81-19.31,2.76-41.97,19.83-52.71,17.07-10.74,41.12-8.7,56.22,4.65,15.11,13.36,20.1,36.87,11.83,55.26-17.96,39.95-75.53,33.81-87.88-7.21Z"/>
      <path class="st0" d="M131.68,217.19c15.56-11.86,37.97-12.79,54.37-2.25"/>
    </g>
  </g>
  <path class="st3" d="M118.22,287.37c.08-.19-.54-1.45-.95-2.38-.26-.59-.74-1.38-.98-1.59-.68-.77-1.18-1.15-.7.18.11.29.12.45.11.57-.05.63-.1,1.22-.15,1.83l-.09-.1.04.12c-.55-.58-.56-.24-.63-.02-.11.27-.2.5-.3.74-.41-.32-.67-.39-.69-.08-.71-.79-.61-.28-.61.04,0,.46.1,1.04-.22,1.03-.26-.01-.27.32-.36.56-.12.35-.29.64-.54.81-.21.14-.53.14-.34.81.02.07-.21-.18-.33-.28-.83-.46-.74.3-1.37.14-.23-.06-.33.07.08.79-.08-.07-.12-.09-.21-.18-.7-.5-1.03-.5-1.06-.15-.03.25-.15.34-.83-.25-1.05-.47-.95.45-1.14.98-.22.58.65,2.28-.47,1.87-.05.02-.07.06-.07.13-.07.09.15.46.28.75,0,.01,0,.04,0,.06-.05-.05-.09-.08-.14-.13l-.13.29c-.24-.18-.32-.18-.16.06-.49-.2-.41.21-.82.11-.83-.2-1.04.23-1.18.72-.65-.33-.74-.1-.68.26-.22-.15-.23-.12-.02.12-.07.19-.44.11-.02.74-.04,0-.13-.05-.13-.01-.01.79-.57,1.05-1.74.82-.18-.03-.15.12-.22.19-.16-.07-.39-.2-.47-.21-.89-.04-.76.79-1.13,1.19-.05.06.16.33.24.5-.31.04-.3.34-.09.77h0c-.17-.03-.21.05,0,.32l-.9,1.15c-.68-.31-.43.06-.47.22l-.03.08-.05.06-.14-.07.07.09c-.49-.25-.45-.13,0,.26h0l-.08-.03.08.08c-.31-.15-.41-.13-.42-.05l-.1.73c-.26.03-.29.21-.11.53-.18-.02-.16.1,0,.3-.2-.03-.16.1,0,.3l-.13-.05.04.07c-.65-.26-.42.07-.47.21l-.14.09c-.58-.28-.61-.19-.54-.02h0c-.85-.28-.58.16-.64.39-.06,0-.13,0-.19,0,0,0-.03,0-.03,0-.02,0-.05,0-.05.02-.1.52-.19,1.04-.24,1.58-.31.35-.08,1,.04,1.57,0,.05.24.21.36.32h0,0l.15.53c-.26.18-.66.3-.75.57-.11.34-.59.51.1,1.23-.4-.12-.42-.04-.43.05l-.12.53c-.84-.09-1.29.02-1.04.47l-.14-.03.05.06c-.55-.12-.46.06-.53.17-.25.37-.34.81-.73,1.13-.22.17-.47.33-.35.64-.61-.14-.48.04-.47.17.04.51.09,1.05.13,1.57-.18.47-.41.92-.39,1.46.02.3-.32.5.69,1.1l-.37.78c.05.34.07.67.13,1.02-.81.39-.24,1.18-.21,1.79.12.05.17.09.24.13-.03.17-.01.36.16.58.35.27-.23.35.56.72.08.1.3.24.23.3-.47.42-.18,1-.33,1.48-.11.36.21.79.32,1.18.21.77.49,1.53.76,2.27-.25.07-.17.18,0,.3-.62.04-.4.19-.37.31-.15.08-.24.18-.03.3-.29.09-.66.17-.38.32-.32.15-.02.36.06.55-.33.01-.36.05.15.11h.06c.6.15.68.15,1.18.1h.04c.75,0,.56-.1.51-.19.18,0,.21-.02.11-.06.48-.03.44-.12.36-.22.19-.05.28-.11.11-.2.44-.12.54-.27.34-.46.16,0,.18-.02.07-.06.49-.05.53-.15.32-.28.17-.22.46-.42.49-.65.05-.55,0-1.11.03-1.66.97-.16.75-.49-1.01-1.11-.21-.06-.3-.1-.4-.14.17.05.36.1.63.17,0-.15.29-.25-.38-.53-.65-.26-.64-.4-.09-.41.35-.27.12-.66.2-.99h0c.19-.04.22-.12-.02-.26h0c.12-.18.03-.42-.17-.68,0,0,0,0,0,0l-.04-.1c1.37-.14.51-.83.08-1.46-.19-.09-.35-.12-.53-.18l.21.03c.27.04.45.05.55.02.22-.1.07-.31.08-.47.02-.27.02-.55.04-.83.05,0,.07-.01.13,0,.07-.39.18-.77.21-1.18.01-.16,0-.34-.02-.51.07-.17.15-.35.26-.51.03-.44-.09-.93-.16-1.41-.04-.04-.03-.06-.06-.1l.3.1.04-.74c.24.05.16-.03-.01-.16.8.04.46-.39.47-.68h0c.76.04.88-.18.58-.61h0c.69.07.62-.22.51-.52.35.03.51-.04.5-.18l-.1-1.97c.1.02.28.09.28.07.08-.42.47-.68.17-1.31-.57-.37-1.13-.66-1.69-.9h0s1.69.9,1.69.9c.18.04.2-.01.01-.17l-.04-.29.1-.21c.46.09.44-.08.02-.48.19.06.17.01.03-.11h0c.11.02.28.08.31.05.3-.4.92-.6.67-1.33h0c.59.04.69-.22.76-.5.82.27.39-.27.46-.49.22,0,.2-.18.07-.42.24.09.36.08.04-.2.44.22.48.15.49.07.03-.27.06-.57.1-.85.19.07.23.03.07-.14l.13.06-.11-.11c.59.15.55-.13.52-.42.14.08.17.07.07-.03.76.27.65-.1.57-.46.44-.02.24-.52.13-.95.18.08.22.07.23.02.47.02.27-.47.3-.78.29.08.26-.1.23-.27.65.31.46-.05.43-.29l.08-.13.03-.07.02-.08.06-.13c.63.33.4-.06.61-.09,0,0,0,0,0,0,0,0,0,0,0,0,.69.38.9.34,1,.2.24-.34.41-.74.6-1.14.01-.03-.13-.21-.21-.32.1.03.27.12.29.08.14-.29.25-.61.37-.92.56.4.49.18.58.11.2-.13.41-.25.6-.4.14-.12.77.26.63-.14.16.14.19.14.09,0,.48.29.54.13.6-.02.04-.11.13-.17.55.14.37.27.22,0,.23-.1.13-.83.42-1.5.75-2.14-.11-.27-.09-.38.13-.26.71.53,1.1.7.82.07.01.01.02.01.03.02.11.08.2.14.27.16.12.06.18.05.26.07.37.23.6.29.57.02-.04-.29.03-.44.37-.25.01-.07.02-.15.05-.21.11-.28.48-.23.42-.72.05.04.1.09.15.14.09.07.16.11.2.1.06-.1.12-.2.19-.31.05-.04.09-.08.12-.14.1-.1.22-.18.43-.13.05,0,.08,0,.1-.04.42-.39.57-1.14.79-1.85.04.02.07.03.1.04.08.11.15.21.23.32.26.02.41-.09-.42-1.61h0s0,.01.01.02l.27-.88c.19.2.18.1.08-.14.12.15.14.14.05-.04v-.02c.55.61.52.29.53.01.02-.52.18-.84.61-.7.56.18.71-.32.82-.93.02-.09.01-.21-.21-.69ZM97.6,306.46s0,0,0,0h0s0,0,0,0ZM95.44,310.9h0s0,0,0,0h0s0,.02,0,.03c-.04-.02-.08-.04-.12-.06.05.01.06.01.11.03ZM93.83,310.98c-.06-.06-.09-.1-.1-.14.04.05.07.09.1.14ZM98.87,307.62s0,0,0,0h0ZM101.25,303.46s0,0,0,0h0ZM113.26,288.51s0,.02-.01.03c0-.01.01-.02.01-.03Z"/>
  <path class="st3" d="M222.44,318.75c.06-.34.09-.67.13-1.02l-.37-.78c1.02-.6.68-.8.69-1.1.02-.54-.21-.99-.39-1.46.04-.53.09-1.06.13-1.57,0-.13.14-.31-.47-.17.12-.31-.13-.47-.35-.64-.39-.31-.49-.75-.73-1.13-.07-.11.02-.29-.53-.17l.05-.06-.14.03c.26-.45-.2-.56-1.04-.47l-.12-.53c-.02-.08-.03-.17-.43-.05.68-.72.21-.89.1-1.23-.09-.28-.49-.39-.75-.57l.15-.53h0c.13-.11.35-.27.36-.32.12-.57.35-1.22.04-1.57-.05-.54-.14-1.06-.24-1.58,0-.01-.03-.01-.05-.02,0,0-.02,0-.03,0-.06,0-.13,0-.19,0-.06-.23.21-.67-.64-.39h0c.07-.17.04-.26-.54.02l-.14-.09c-.05-.14.17-.47-.47-.21l.04-.07-.13.05c.16-.2.19-.33,0-.3.16-.2.18-.32,0-.3.18-.32.15-.5-.11-.53l-.1-.73c-.01-.08-.1-.1-.42.05l.08-.08-.08.03s0,0,0,0c.44-.39.48-.51-.01-.26l.07-.09-.14.07-.05-.06-.03-.08c-.04-.16.21-.54-.47-.22l-.9-1.15c.22-.26.18-.34.01-.31h0c.21-.44.22-.73-.09-.77.09-.17.3-.44.24-.5-.37-.4-.24-1.23-1.13-1.19-.09,0-.31.13-.47.21-.07-.07-.04-.22-.22-.19-1.17.23-1.72-.04-1.74-.82,0-.03-.08,0-.13.01.42-.62.05-.55-.02-.74.21-.24.2-.27-.02-.12.06-.36-.03-.59-.68-.26-.14-.49-.35-.92-1.18-.72-.41.1-.32-.31-.82-.11.16-.25.08-.24-.16-.06l-.13-.29c-.05.05-.09.09-.14.13,0-.02,0-.05,0-.06.13-.29.35-.66.28-.75,0-.07-.02-.11-.07-.13-1.12.42-.26-1.28-.47-1.87-.19-.54-.09-1.46-1.14-.98-.69.59-.81.5-.83.25-.03-.35-.36-.35-1.06.15-.09.09-.13.11-.21.18.41-.72.31-.85.08-.79-.62.17-.54-.6-1.37-.14-.12.1-.35.35-.33.28.18-.66-.13-.67-.34-.81-.25-.17-.42-.46-.54-.81-.08-.23-.1-.57-.36-.56-.32.02-.22-.57-.22-1.03,0-.31.11-.83-.61-.04-.02-.3-.28-.24-.69.08-.1-.25-.19-.48-.3-.74-.08-.22-.08-.55-.63.02l.04-.12-.09.1c-.05-.61-.1-1.2-.15-1.83,0-.11,0-.27.11-.57.48-1.33-.01-.95-.69-.18-.25.21-.73,1.01-.99,1.59-.41.94-1.03,2.19-.95,2.38-.22.47-.22.59-.21.69.1.61.25,1.11.82.93.43-.13.59.18.61.7,0,.27-.02.59.54-.01v.02c-.1.18-.09.2.04.04-.1.24-.11.34.08.14l.27.88s0-.01.01-.02h0c-.83,1.52-.68,1.64-.42,1.61.08-.12.16-.22.23-.32.03-.01.06-.02.1-.04.22.71.37,1.46.79,1.85.02.04.05.05.1.04.21-.05.33.03.43.13.03.06.07.1.12.14.06.1.12.21.19.31.04,0,.1-.03.2-.1.05-.04.1-.09.15-.14-.06.49.31.44.42.72.02.06.03.14.05.21.34-.19.41-.03.36.25-.04.27.2.21.57-.02.08-.02.14-.01.26-.07.07-.03.16-.09.27-.16.01-.01.02-.01.03-.02-.28.64.1.47.82-.07.22-.12.24,0,.13.26.34.64.63,1.31.75,2.14.02.1-.14.38.23.1.43-.31.51-.25.55-.14.06.15.12.3.6.02-.1.13-.07.13.09,0-.14.4.49.02.63.14.18.15.4.26.6.4.09.07.02.28.58-.11.12.31.23.63.37.92.02.04.19-.05.29-.08-.07.11-.22.29-.21.32.18.4.36.8.59,1.14.1.14.31.18,1-.2,0,0,0,0,0,0h0c.21.03-.02.43.61.09l.06.13.02.08.03.07.08.13c-.03.24-.22.6.43.29-.02.17-.05.35.23.27.04.32-.17.81.3.78,0,.05.05.07.22-.02-.11.44-.31.93.13.95-.09.36-.2.73.57.46-.09.1-.07.1.07.03-.03.29-.06.57.52.42l-.11.11.13-.06c-.16.18-.12.21.07.14.03.29.07.58.1.85.01.08.05.15.49-.07-.32.29-.21.29.04.2-.12.24-.15.41.08.42.07.22-.36.76.46.49.06.29.17.54.76.5,0,0,0,0,0,0,0,0,0,0,0,0-.25.73.37.93.67,1.33.02.03.2-.03.31-.05h0,0c-.14.12-.15.17.03.11-.42.4-.43.57.02.48l.1.21-.04.29c-.19.16-.16.21.01.17l1.69-.91h0c-.56.24-1.12.53-1.69.91-.31.63.09.89.17,1.31,0,.02.18-.04.28-.07l-.1,1.97c0,.15.15.21.5.18-.1.3-.18.58.51.52h0c-.31.43-.18.65.58.61h0c0,.3-.34.73.47.69-.18.12-.25.2-.01.16l.04.74.3-.1s-.02.06-.06.1c-.07.48-.19.97-.16,1.41.12.16.19.33.27.51-.01.17-.03.35-.02.51.03.41.14.78.21,1.18.07,0,.08,0,.14,0,.01.28.02.55.04.83,0,.16-.14.37.08.47.1.02.28.01.55-.02l.22-.03c-.17.06-.34.09-.53.18-.44.62-1.3,1.32.08,1.46l-.04.1h0c-.21.26-.3.5-.17.68h0s0,0,0,0c-.24.14-.21.22-.02.26h0c.08.33-.14.72.2.99.56.02.57.15-.09.41-.67.28-.38.38-.38.53.28-.07.47-.12.63-.17-.1.04-.19.08-.4.14-1.76.63-1.98.95-1.01,1.11.02.56-.02,1.12.03,1.66.03.23.32.43.49.65-.21.14-.17.23.32.28-.11.04-.09.06.07.06-.2.19-.1.34.34.46-.17.09-.08.15.11.2-.08.09-.12.18.36.22-.11.03-.07.05.11.06-.05.09-.24.19.51.19h.04c.5.05.58.05,1.18-.08h.05c.51-.08.48-.11.15-.12.08-.19.38-.4.06-.55.28-.15-.08-.23-.38-.32.21-.12.13-.21-.03-.3.03-.12.26-.28-.36-.31.17-.12.25-.23,0-.3.27-.75.55-1.51.76-2.27.12-.39.43-.82.32-1.18-.15-.49.14-1.07-.33-1.48-.08-.06.14-.2.23-.3.79-.36.21-.44.56-.72.17-.22.19-.41.16-.58.07-.04.12-.08.24-.13.03-.62.6-1.4-.21-1.79ZM200.94,288.54s0-.02-.01-.03c0,.01.01.01.01.03ZM218.74,310.93s0-.02,0-.03h0s0,0,0,0h0c.05-.02.07-.02.12-.03-.04.02-.08.04-.12.06ZM220.46,310.84s-.04.08-.1.14c.03-.04.06-.09.1-.14ZM216.58,306.47s0,0,0,0c0,0,0,0,0,0h0ZM212.93,303.46h0s0,0,0,0h0ZM215.32,307.62h0Z"/>
  <path class="st3" d="M330.81,97.72c-10.92,13.23-21.84,26.45-32.76,39.68,19.66,15.96,32.67,35.4,48.59,54.43,12.17-15.09,13.58-25,8.55-43.51-5.17-19-13.15-37.24-23.62-53.92"/>
  <path class="st3" d="M32.83,93.24c3.43,8.46,6.86,16.93,10.29,25.39,3.7,9.12,8.38,13.54,1.53,20.44-11.64,11.71-26.92,20.02-38.63,32.18,2.62-27.8,12.52-54.02,26.81-78.01Z"/>
  <path class="st3" d="M184.21.06c29.28-1.1,58.3,13.24,66.49,32.86-20.27-7.55-44.53-9.74-66.9-6.04,25.11,1.24,48.31,13.81,56.22,30.46-3.48-7.32-54.63-9.52-64.06-9.79-12.08-.34-44.94,6.4-52.36-.91-7.42-7.3,5.85-22.57,12.01-28.15C147.16,8.02,165.14.78,184.21.06Z"/>
</svg>